<svg width="307" height="166" viewBox="0 0 307 166" fill="none" xmlns="http://www.w3.org/2000/svg">
<rect width="307" height="166" fill="#E5E5E5"/>
<rect width="307" height="166" fill="#076E9F"/>
<path d="M113.098 22.4453C112.723 22.9141 112.359 23.3711 112.008 23.8164C111.68 24.2383 111.352 24.6836 111.023 25.1523C113.391 26.0195 115.301 27.0977 116.754 28.3867C118.207 29.6523 119.332 30.9883 120.129 32.3945C120.926 33.7773 121.453 35.1484 121.711 36.5078C121.992 37.8438 122.133 39.0039 122.133 39.9883C122.133 41.3711 121.898 42.6953 121.43 43.9609C120.984 45.2031 120.375 46.3398 119.602 47.3711C118.852 48.4023 117.973 49.3047 116.965 50.0781C115.957 50.8281 114.902 51.4023 113.801 51.8008C116.074 53.6758 117.762 55.7617 118.863 58.0586C119.988 60.3555 120.551 62.6758 120.551 65.0195C120.551 66.9883 120.141 68.8516 119.32 70.6094C118.523 72.3672 117.434 73.9023 116.051 75.2148C114.668 76.5273 113.027 77.5703 111.129 78.3438C109.254 79.1172 107.25 79.5039 105.117 79.5039C103.266 79.5039 101.555 79.1992 99.9844 78.5898C98.4375 78.0039 97.043 77.1953 95.8008 76.1641C94.582 75.1328 93.5156 73.9141 92.6016 72.5078C91.7109 71.1016 91.0078 69.6016 90.4922 68.0078L92.25 67.4805C93.1172 70.293 94.5469 72.4609 96.5391 73.9844C98.5312 75.5312 100.934 76.3047 103.746 76.3047C105.48 76.3047 107.133 75.9766 108.703 75.3203C110.297 74.6875 111.691 73.8203 112.887 72.7188C114.082 71.5938 115.031 70.2812 115.734 68.7812C116.438 67.2578 116.789 65.6172 116.789 63.8594C116.789 62.6641 116.625 61.5273 116.297 60.4492C115.969 59.3711 115.535 58.3516 114.996 57.3906C114.457 56.4297 113.848 55.5508 113.168 54.7539C112.512 53.9336 111.832 53.207 111.129 52.5742C110.496 52.6914 109.863 52.7852 109.23 52.8555C108.598 52.9258 107.977 52.9609 107.367 52.9609C106.523 52.9609 105.656 52.9023 104.766 52.7852C103.898 52.6445 103.102 52.4453 102.375 52.1875C101.672 51.9297 101.086 51.5898 100.617 51.168C100.172 50.7461 99.9492 50.2305 99.9492 49.6211C99.9492 49.4805 99.9844 49.2812 100.055 49.0234C100.125 48.7422 100.266 48.4727 100.477 48.2148C100.711 47.957 101.051 47.7344 101.496 47.5469C101.941 47.3359 102.551 47.2305 103.324 47.2305C104.051 47.2305 104.777 47.3125 105.504 47.4766C106.254 47.6406 106.969 47.8633 107.648 48.1445C108.328 48.4023 108.984 48.707 109.617 49.0586C110.25 49.3867 110.824 49.7266 111.34 50.0781C112.184 49.7031 113.027 49.1992 113.871 48.5664C114.738 47.9102 115.523 47.1133 116.227 46.1758C116.93 45.2383 117.504 44.1602 117.949 42.9414C118.395 41.7227 118.617 40.3516 118.617 38.8281C118.617 36.1562 117.879 33.7539 116.402 31.6211C114.926 29.4883 112.734 27.8594 109.828 26.7344C108.422 28.7031 107.109 30.6602 105.891 32.6055C104.672 34.5508 103.535 36.4961 102.48 38.4414C101.426 40.3867 100.43 42.332 99.4922 44.2773C98.5781 46.2227 97.6992 48.1914 96.8555 50.1836C94.9102 54.7305 93.0117 58.6211 91.1602 61.8555C89.3086 65.0664 87.3281 67.6914 85.2188 69.7305C83.1328 71.7695 80.8477 73.2578 78.3633 74.1953C75.9023 75.1562 73.0781 75.6367 69.8906 75.6367C67.4297 75.6367 65.3086 75.2266 63.5273 74.4062C61.7461 73.6094 60.2812 72.5078 59.1328 71.1016C57.9844 69.6953 57.1289 68.0664 56.5664 66.2148C56.0273 64.3398 55.7578 62.3477 55.7578 60.2383C55.7578 57.8945 56.1328 55.4805 56.8828 52.9961C57.6328 50.4883 58.7461 47.9922 60.2227 45.5078C61.1602 43.9375 62.3203 42.3086 63.7031 40.6211C65.0859 38.9102 66.668 37.2344 68.4492 35.5938C70.2305 33.9297 72.2109 32.3594 74.3906 30.8828C76.5938 29.3828 78.9609 28.082 81.4922 26.9805C84.0469 25.8555 86.7656 24.9648 89.6484 24.3086C92.5547 23.6289 95.6133 23.2891 98.8242 23.2891C100.793 23.2891 102.586 23.3945 104.203 23.6055C105.844 23.793 107.355 24.0742 108.738 24.4492C109.277 23.9102 109.816 23.3711 110.355 22.832C110.918 22.293 111.492 21.7539 112.078 21.2148L113.098 22.4453ZM99.1055 37.0352C100.348 34.9727 101.637 33.0391 102.973 31.2344C104.332 29.4062 105.785 27.6484 107.332 25.9609C106.441 25.75 105.492 25.5859 104.484 25.4688C103.5 25.3516 102.457 25.293 101.355 25.293C97.8164 25.293 94.3242 25.7852 90.8789 26.7695C87.457 27.7305 84.1875 29.0781 81.0703 30.8125C77.9766 32.5469 75.1055 34.6094 72.457 37C69.8086 39.3906 67.5117 41.9922 65.5664 44.8047C63.6445 47.5938 62.1328 50.5469 61.0312 53.6641C59.9531 56.7812 59.4141 59.9453 59.4141 63.1562C59.4141 64.75 59.625 66.2031 60.0469 67.5156C60.4922 68.8047 61.1484 69.918 62.0156 70.8555C62.8828 71.7695 63.9492 72.4844 65.2148 73C66.5039 73.4922 67.9805 73.7383 69.6445 73.7383C72.4336 73.7383 74.8711 73.2227 76.957 72.1914C79.043 71.1367 80.8945 69.707 82.5117 67.9023C84.1523 66.0977 85.6289 64 86.9414 61.6094C88.2539 59.1953 89.5312 56.6289 90.7734 53.9102C92.0391 51.1914 93.3281 48.3906 94.6406 45.5078C95.9531 42.625 97.4414 39.8008 99.1055 37.0352ZM108.949 50.7812C108.598 50.5234 108.176 50.2891 107.684 50.0781C107.215 49.8438 106.723 49.6562 106.207 49.5156C105.691 49.3516 105.176 49.2227 104.66 49.1289C104.145 49.0352 103.699 48.9883 103.324 48.9883C102.668 48.9883 102.246 49.0703 102.059 49.2344C101.895 49.375 101.812 49.5039 101.812 49.6211C101.812 49.832 101.965 50.0195 102.27 50.1836C102.598 50.3477 102.996 50.5 103.465 50.6406C103.957 50.7578 104.496 50.8516 105.082 50.9219C105.668 50.9922 106.242 51.0273 106.805 51.0273C107.062 51.0273 107.355 51.0156 107.684 50.9922C108.012 50.9688 108.434 50.8984 108.949 50.7812ZM154.652 49.6211C154.348 50.2305 153.914 51.0273 153.352 52.0117C152.812 52.9961 152.227 54.0859 151.594 55.2812C150.961 56.4531 150.316 57.6836 149.66 58.9727C149.027 60.2617 148.441 61.5273 147.902 62.7695C147.387 63.9883 146.953 65.1484 146.602 66.25C146.273 67.3281 146.109 68.2422 146.109 68.9922C146.109 69.7422 146.25 70.2344 146.531 70.4688C146.836 70.6797 147.223 70.7852 147.691 70.7852C148.371 70.7852 149.062 70.5859 149.766 70.1875C150.492 69.7891 151.195 69.2734 151.875 68.6406C152.578 68.0078 153.258 67.293 153.914 66.4961C154.57 65.6992 155.18 64.9023 155.742 64.1055C156.328 63.2852 156.855 62.5117 157.324 61.7852C157.793 61.0352 158.191 60.4023 158.52 59.8867L159.785 60.8711C159.387 61.6211 158.918 62.4297 158.379 63.2969C157.84 64.1641 157.242 65.043 156.586 65.9336C155.953 66.8008 155.262 67.6445 154.512 68.4648C153.762 69.2852 152.965 70.0117 152.121 70.6445C151.301 71.2773 150.434 71.7812 149.52 72.1562C148.605 72.5312 147.668 72.7188 146.707 72.7188C145.301 72.7188 144.27 72.2969 143.613 71.4531C142.957 70.6094 142.629 69.5195 142.629 68.1836C142.629 68.0898 142.629 67.8906 142.629 67.5859C142.652 67.2578 142.688 67 142.734 66.8125C141.562 68.2891 140.438 69.5078 139.359 70.4688C138.305 71.4297 137.273 72.1914 136.266 72.7539C135.281 73.3164 134.32 73.7031 133.383 73.9141C132.469 74.1484 131.59 74.2656 130.746 74.2656C129.855 74.2656 129.012 74.1133 128.215 73.8086C127.441 73.5273 126.762 73.1055 126.176 72.543C125.566 71.9805 125.098 71.2891 124.77 70.4688C124.418 69.6484 124.242 68.6992 124.242 67.6211C124.242 66.2852 124.547 64.7617 125.156 63.0508C125.742 61.3164 126.797 59.4531 128.32 57.4609C129.609 55.75 130.945 54.3086 132.328 53.1367C133.734 51.9648 135.105 51.0273 136.441 50.3242C137.801 49.5977 139.09 49.082 140.309 48.7773C141.527 48.4727 142.617 48.3203 143.578 48.3203C145.734 48.3203 147.363 48.6836 148.465 49.4102C149.566 50.1133 150.234 51.2031 150.469 52.6797C150.938 52.0938 151.43 51.5078 151.945 50.9219C152.461 50.3359 152.988 49.7383 153.527 49.1289L154.652 49.6211ZM143.859 62.9805C144.164 62.4883 144.539 61.8672 144.984 61.1172C145.43 60.3438 145.898 59.5586 146.391 58.7617C146.883 57.9414 147.363 57.1562 147.832 56.4062C148.301 55.6562 148.711 55.0234 149.062 54.5078C149.062 54.2969 149.027 53.957 148.957 53.4883C148.91 53.0195 148.758 52.5508 148.5 52.082C148.242 51.5898 147.832 51.168 147.27 50.8164C146.707 50.4648 145.922 50.2891 144.914 50.2891C144.188 50.2891 143.367 50.4062 142.453 50.6406C141.562 50.8516 140.602 51.2266 139.57 51.7656C138.562 52.2812 137.52 52.9727 136.441 53.8398C135.363 54.707 134.285 55.7852 133.207 57.0742C131.59 59.0195 130.336 60.9766 129.445 62.9453C128.578 64.8906 128.145 66.6484 128.145 68.2188C128.145 69.5547 128.449 70.5859 129.059 71.3125C129.668 72.0391 130.535 72.4023 131.66 72.4023C132.949 72.4023 134.156 72.1211 135.281 71.5586C136.406 70.9727 137.461 70.2227 138.445 69.3086C139.43 68.3945 140.367 67.3867 141.258 66.2852C142.148 65.1602 143.016 64.0586 143.859 62.9805ZM169.84 45.4023C169.723 45.6133 169.57 45.8477 169.383 46.1055C169.195 46.3398 169.008 46.6211 168.82 46.9492C168.656 47.2539 168.504 47.6172 168.363 48.0391C168.246 48.4609 168.188 48.9648 168.188 49.5508C168.188 50.043 168.305 50.7109 168.539 51.5547C168.797 52.3984 169.066 53.3711 169.348 54.4727C169.629 55.5508 169.887 56.7344 170.121 58.0234C170.379 59.2891 170.508 60.6016 170.508 61.9609C170.508 63.9531 170.238 65.7109 169.699 67.2344C169.16 68.7578 168.445 70.0586 167.555 71.1367C169.383 70.1523 171.176 68.7461 172.934 66.918C174.691 65.0664 176.461 62.7227 178.242 59.8867L179.438 60.9414C178.43 62.6055 177.281 64.2578 175.992 65.8984C174.727 67.5156 173.332 68.9805 171.809 70.293C170.285 71.582 168.645 72.625 166.887 73.4219C165.129 74.2422 163.266 74.6523 161.297 74.6523C159.539 74.6523 158.062 74.2305 156.867 73.3867C155.648 72.5664 154.898 71.3242 154.617 69.6602L155.883 69.4141C155.883 69.5547 155.953 69.7891 156.094 70.1172C156.211 70.4219 156.41 70.7266 156.691 71.0312C156.973 71.3359 157.359 71.6055 157.852 71.8398C158.32 72.0742 158.906 72.1914 159.609 72.1914C160.547 72.1914 161.379 71.9805 162.105 71.5586C162.832 71.1133 163.465 70.5391 164.004 69.8359C164.543 69.1328 165 68.3359 165.375 67.4453C165.75 66.5312 166.043 65.5938 166.254 64.6328C166.488 63.6719 166.652 62.7344 166.746 61.8203C166.84 60.9062 166.887 60.0742 166.887 59.3242C166.887 58.5742 166.852 57.7422 166.781 56.8281C166.734 55.9141 166.676 55.0469 166.605 54.2266C166.535 53.3828 166.465 52.6562 166.395 52.0469C166.348 51.4141 166.324 51.0039 166.324 50.8164V50.7461C166.02 51.0742 165.656 51.5547 165.234 52.1875C164.812 52.8203 164.355 53.5117 163.863 54.2617C163.395 55.0117 162.914 55.7734 162.422 56.5469C161.953 57.3203 161.52 58.0234 161.121 58.6562C160.746 59.2891 160.43 59.8164 160.172 60.2383C159.938 60.6367 159.82 60.8477 159.82 60.8711L158.555 59.8867C158.578 59.8633 158.871 59.3594 159.434 58.375C159.996 57.3906 160.734 56.1484 161.648 54.6484C162.586 53.125 163.641 51.4492 164.812 49.6211C165.984 47.7695 167.191 45.9766 168.434 44.2422L169.84 45.4023ZM180.914 64.9844C180.867 65.2656 180.832 65.5469 180.809 65.8281C180.785 66.1094 180.773 66.3906 180.773 66.6719C180.773 67.5156 180.891 68.3242 181.125 69.0977C181.383 69.8477 181.746 70.5156 182.215 71.1016C182.707 71.6641 183.305 72.1094 184.008 72.4375C184.734 72.7656 185.555 72.9297 186.469 72.9297C189.539 72.9297 192.504 71.8867 195.363 69.8008C198.223 67.7148 201.07 64.4102 203.906 59.8867L205.102 60.9414C203.555 63.5195 201.984 65.6992 200.391 67.4805C198.797 69.2383 197.203 70.668 195.609 71.7695C194.039 72.8711 192.492 73.668 190.969 74.1602C189.445 74.6523 187.992 74.8984 186.609 74.8984C185.602 74.8984 184.535 74.7578 183.41 74.4766C182.285 74.1953 181.242 73.7266 180.281 73.0703C179.344 72.4141 178.57 71.5352 177.961 70.4336C177.328 69.332 177.012 67.9609 177.012 66.3203C177.012 64.5625 177.316 62.875 177.926 61.2578C178.512 59.6172 179.285 58.0938 180.246 56.6875C181.207 55.2812 182.309 54.0039 183.551 52.8555C184.793 51.6836 186.047 50.6875 187.312 49.8672C188.602 49.0469 189.855 48.4141 191.074 47.9688C192.293 47.5 193.371 47.2656 194.309 47.2656C194.918 47.2656 195.539 47.3594 196.172 47.5469C196.805 47.7344 197.367 48.0273 197.859 48.4258C198.375 48.8242 198.785 49.3516 199.09 50.0078C199.418 50.6641 199.582 51.4492 199.582 52.3633C199.582 53.6055 199.289 54.7773 198.703 55.8789C198.141 56.957 197.379 57.9648 196.418 58.9023C195.457 59.8164 194.344 60.6484 193.078 61.3984C191.812 62.125 190.488 62.7461 189.105 63.2617C187.723 63.7773 186.328 64.1875 184.922 64.4922C183.516 64.7969 182.18 64.9609 180.914 64.9844ZM181.195 63.4727C182.766 63.3086 184.242 62.9805 185.625 62.4883C187.008 61.9961 188.273 61.3984 189.422 60.6953C190.57 59.9688 191.59 59.1836 192.48 58.3398C193.395 57.4961 194.156 56.6406 194.766 55.7734C195.375 54.9062 195.844 54.0742 196.172 53.2773C196.5 52.4805 196.664 51.7656 196.664 51.1328C196.664 50.5 196.488 49.9961 196.137 49.6211C195.809 49.2461 195.41 49.0586 194.941 49.0586C193.91 49.0586 192.75 49.4336 191.461 50.1836C190.172 50.9102 188.883 51.9297 187.594 53.2422C186.305 54.5312 185.086 56.0547 183.938 57.8125C182.812 59.5703 181.898 61.457 181.195 63.4727ZM243.105 26.8047C242.848 27.1797 242.426 27.8008 241.84 28.668C241.254 29.5352 240.574 30.5664 239.801 31.7617C239.027 32.957 238.184 34.2812 237.27 35.7344C236.379 37.1875 235.477 38.6875 234.562 40.2344C233.672 41.7812 232.793 43.3516 231.926 44.9453C231.082 46.5156 230.332 48.0273 229.676 49.4805C228.645 51.7305 227.789 53.7461 227.109 55.5273C226.453 57.2852 225.926 58.8555 225.527 60.2383C225.152 61.6211 224.883 62.8281 224.719 63.8594C224.578 64.8672 224.508 65.7344 224.508 66.4609C224.508 67.7969 224.707 68.7227 225.105 69.2383C225.527 69.7539 226.09 70.0117 226.793 70.0117C227.52 70.0117 228.211 69.8242 228.867 69.4492C229.547 69.0742 230.191 68.5938 230.801 68.0078C231.434 67.4219 232.02 66.7539 232.559 66.0039C233.121 65.2539 233.637 64.5039 234.105 63.7539C234.598 63.0039 235.043 62.2891 235.441 61.6094C235.84 60.9297 236.191 60.3555 236.496 59.8867L237.762 60.8711C237.504 61.293 237.176 61.8555 236.777 62.5586C236.402 63.2383 235.969 63.9883 235.477 64.8086C234.984 65.6289 234.422 66.4609 233.789 67.3047C233.156 68.125 232.453 68.875 231.68 69.5547C230.93 70.2344 230.086 70.7969 229.148 71.2422C228.234 71.6641 227.238 71.875 226.16 71.875C225.645 71.875 225.094 71.8047 224.508 71.6641C223.945 71.5234 223.418 71.2773 222.926 70.9258C222.434 70.5742 222 70.0938 221.625 69.4844C221.25 68.8516 221.004 68.0547 220.887 67.0938C219.129 68.9922 217.418 70.4336 215.754 71.418C214.09 72.3789 212.52 72.8594 211.043 72.8594C210.293 72.8594 209.461 72.7305 208.547 72.4727C207.656 72.2148 206.812 71.7695 206.016 71.1367C205.219 70.5039 204.551 69.6719 204.012 68.6406C203.473 67.5859 203.203 66.2852 203.203 64.7383C203.203 63.0039 203.473 61.3516 204.012 59.7812C204.551 58.2109 205.277 56.7578 206.191 55.4219C207.105 54.0625 208.148 52.8438 209.32 51.7656C210.516 50.6641 211.758 49.7383 213.047 48.9883C214.336 48.2148 215.625 47.6172 216.914 47.1953C218.227 46.7734 219.457 46.5625 220.605 46.5625C222.129 46.5625 223.324 46.75 224.191 47.125C225.059 47.5 225.715 47.875 226.16 48.25C226.488 47.5938 226.934 46.7617 227.496 45.7539C228.059 44.7227 228.715 43.5859 229.465 42.3438C230.215 41.0781 231.047 39.7422 231.961 38.3359C232.875 36.9062 233.848 35.4766 234.879 34.0469C235.91 32.5938 236.988 31.1641 238.113 29.7578C239.262 28.3516 240.422 27.0391 241.594 25.8203L243.105 26.8047ZM220.852 64.457C220.969 62.7227 221.367 60.6836 222.047 58.3398C222.75 55.9727 223.816 53.2539 225.246 50.1836C224.918 49.6914 224.449 49.3164 223.84 49.0586C223.254 48.7773 222.586 48.6367 221.836 48.6367C220.688 48.6367 219.516 48.8711 218.32 49.3398C217.148 49.8086 216.012 50.4414 214.91 51.2383C213.832 52.0352 212.812 52.9844 211.852 54.0859C210.891 55.1641 210.047 56.3242 209.32 57.5664C208.617 58.8086 208.055 60.1094 207.633 61.4688C207.234 62.8047 207.035 64.1289 207.035 65.4414C207.035 67.1992 207.398 68.5703 208.125 69.5547C208.875 70.5391 209.871 71.0312 211.113 71.0312C211.699 71.0312 212.344 70.9141 213.047 70.6797C213.75 70.4453 214.512 70.0703 215.332 69.5547C216.176 69.0156 217.055 68.3359 217.969 67.5156C218.883 66.6719 219.844 65.6523 220.852 64.457Z" fill="white"/>
<path d="M44.5 100.777C44.5234 100.824 44.6992 100.988 45.0273 101.27C45.3555 101.527 45.8125 101.82 46.3984 102.148C47.0078 102.477 47.7461 102.77 48.6133 103.027C49.4805 103.285 50.4648 103.414 51.5664 103.414C53.418 103.414 55.1641 103.062 56.8047 102.359C58.4453 101.656 59.957 100.73 61.3398 99.582C62.7461 98.4336 64 97.1211 65.1016 95.6445C66.2266 94.168 67.1758 92.6562 67.9492 91.1094C68.7227 89.5625 69.3203 88.0391 69.7422 86.5391C70.1641 85.0391 70.375 83.6914 70.375 82.4961C70.375 81.0664 70.1641 79.8242 69.7422 78.7695C69.3203 77.7148 68.7461 76.8477 68.0195 76.168C67.3164 75.4883 66.4727 74.9844 65.4883 74.6562C64.5273 74.3281 63.4844 74.1641 62.3594 74.1641C60.1328 74.1641 57.918 74.5625 55.7148 75.3594C53.5352 76.1328 51.4141 77.1992 49.3516 78.5586C47.2891 79.918 45.3086 81.5234 43.4102 83.375C41.5117 85.2031 39.7422 87.1719 38.1016 89.2812C36.4609 91.3906 34.9727 93.5938 33.6367 95.8906C32.3008 98.1641 31.1523 100.426 30.1914 102.676C29.2539 104.926 28.5273 107.117 28.0117 109.25C27.4961 111.359 27.2383 113.305 27.2383 115.086C27.2383 117.148 27.5312 119.094 28.1172 120.922C28.7266 122.75 29.6289 124.344 30.8242 125.703C32.0195 127.062 33.5078 128.129 35.2891 128.902C37.0938 129.699 39.1914 130.098 41.582 130.098C43.7148 130.098 45.9297 129.77 48.2266 129.113C50.5234 128.457 52.8086 127.402 55.082 125.949C57.3789 124.496 59.6406 122.621 61.8672 120.324C64.0938 118.004 66.2266 115.191 68.2656 111.887L69.5312 112.871C67.3281 116.457 65.0312 119.469 62.6406 121.906C60.25 124.344 57.8594 126.301 55.4688 127.777C53.0781 129.277 50.7227 130.344 48.4023 130.977C46.082 131.633 43.8789 131.961 41.793 131.961C38.793 131.961 36.1445 131.422 33.8477 130.344C31.5508 129.289 29.6289 127.895 28.082 126.16C26.5352 124.426 25.3633 122.457 24.5664 120.254C23.793 118.027 23.4062 115.766 23.4062 113.469C23.4062 111.5 23.6758 109.402 24.2148 107.176C24.7773 104.949 25.5625 102.688 26.5703 100.391C27.5781 98.0938 28.7852 95.7969 30.1914 93.5C31.6211 91.2031 33.2031 89.0117 34.9375 86.9258C36.6953 84.8164 38.5938 82.8594 40.6328 81.0547C42.6719 79.25 44.8047 77.6914 47.0312 76.3789C49.2812 75.043 51.5898 74 53.957 73.25C56.3477 72.4766 58.7734 72.0898 61.2344 72.0898C62.7812 72.0898 64.2578 72.3125 65.6641 72.7578C67.0938 73.1797 68.3477 73.8594 69.4258 74.7969C70.5039 75.7344 71.3594 76.9414 71.9922 78.418C72.625 79.8711 72.9414 81.6289 72.9414 83.6914C72.9414 85.0742 72.7305 86.5742 72.3086 88.1914C71.8867 89.8086 71.2656 91.4375 70.4453 93.0781C69.6484 94.6953 68.6641 96.2656 67.4922 97.7891C66.3438 99.3125 65.0312 100.66 63.5547 101.832C62.1016 102.98 60.4844 103.906 58.7031 104.609C56.9453 105.312 55.0703 105.664 53.0781 105.664C50.9453 105.664 49.082 105.312 47.4883 104.609C45.918 103.883 44.5703 102.992 43.4453 101.938L44.5 100.777ZM96.2148 101.621C95.9102 102.23 95.4766 103.027 94.9141 104.012C94.375 104.996 93.7891 106.086 93.1562 107.281C92.5234 108.453 91.8789 109.684 91.2227 110.973C90.5898 112.262 90.0039 113.527 89.4648 114.77C88.9492 115.988 88.5156 117.148 88.1641 118.25C87.8359 119.328 87.6719 120.242 87.6719 120.992C87.6719 121.742 87.8125 122.234 88.0938 122.469C88.3984 122.68 88.7852 122.785 89.2539 122.785C89.9336 122.785 90.625 122.586 91.3281 122.188C92.0547 121.789 92.7578 121.273 93.4375 120.641C94.1406 120.008 94.8203 119.293 95.4766 118.496C96.1328 117.699 96.7422 116.902 97.3047 116.105C97.8906 115.285 98.418 114.512 98.8867 113.785C99.3555 113.035 99.7539 112.402 100.082 111.887L101.348 112.871C100.949 113.621 100.48 114.43 99.9414 115.297C99.4023 116.164 98.8047 117.043 98.1484 117.934C97.5156 118.801 96.8242 119.645 96.0742 120.465C95.3242 121.285 94.5273 122.012 93.6836 122.645C92.8633 123.277 91.9961 123.781 91.082 124.156C90.168 124.531 89.2305 124.719 88.2695 124.719C86.8633 124.719 85.832 124.297 85.1758 123.453C84.5195 122.609 84.1914 121.52 84.1914 120.184C84.1914 120.09 84.1914 119.891 84.1914 119.586C84.2148 119.258 84.25 119 84.2969 118.812C83.125 120.289 82 121.508 80.9219 122.469C79.8672 123.43 78.8359 124.191 77.8281 124.754C76.8438 125.316 75.8828 125.703 74.9453 125.914C74.0312 126.148 73.1523 126.266 72.3086 126.266C71.418 126.266 70.5742 126.113 69.7773 125.809C69.0039 125.527 68.3242 125.105 67.7383 124.543C67.1289 123.98 66.6602 123.289 66.332 122.469C65.9805 121.648 65.8047 120.699 65.8047 119.621C65.8047 118.285 66.1094 116.762 66.7188 115.051C67.3047 113.316 68.3594 111.453 69.8828 109.461C71.1719 107.75 72.5078 106.309 73.8906 105.137C75.2969 103.965 76.668 103.027 78.0039 102.324C79.3633 101.598 80.6523 101.082 81.8711 100.777C83.0898 100.473 84.1797 100.32 85.1406 100.32C87.2969 100.32 88.9258 100.684 90.0273 101.41C91.1289 102.113 91.7969 103.203 92.0312 104.68C92.5 104.094 92.9922 103.508 93.5078 102.922C94.0234 102.336 94.5508 101.738 95.0898 101.129L96.2148 101.621ZM85.4219 114.98C85.7266 114.488 86.1016 113.867 86.5469 113.117C86.9922 112.344 87.4609 111.559 87.9531 110.762C88.4453 109.941 88.9258 109.156 89.3945 108.406C89.8633 107.656 90.2734 107.023 90.625 106.508C90.625 106.297 90.5898 105.957 90.5195 105.488C90.4727 105.02 90.3203 104.551 90.0625 104.082C89.8047 103.59 89.3945 103.168 88.832 102.816C88.2695 102.465 87.4844 102.289 86.4766 102.289C85.75 102.289 84.9297 102.406 84.0156 102.641C83.125 102.852 82.1641 103.227 81.1328 103.766C80.125 104.281 79.082 104.973 78.0039 105.84C76.9258 106.707 75.8477 107.785 74.7695 109.074C73.1523 111.02 71.8984 112.977 71.0078 114.945C70.1406 116.891 69.707 118.648 69.707 120.219C69.707 121.555 70.0117 122.586 70.6211 123.312C71.2305 124.039 72.0977 124.402 73.2227 124.402C74.5117 124.402 75.7188 124.121 76.8438 123.559C77.9688 122.973 79.0234 122.223 80.0078 121.309C80.9922 120.395 81.9297 119.387 82.8203 118.285C83.7109 117.16 84.5781 116.059 85.4219 114.98ZM112.387 94.3438L104.406 110.375C105.812 108.57 107.289 106.895 108.836 105.348C110.383 103.777 111.965 102.5 113.582 101.516C114.777 100.812 115.832 100.332 116.746 100.074C117.66 99.793 118.527 99.6523 119.348 99.6523C120.145 99.6523 120.801 99.7812 121.316 100.039C121.832 100.297 122.242 100.637 122.547 101.059C122.852 101.48 123.062 101.949 123.18 102.465C123.297 102.957 123.355 103.449 123.355 103.941C123.355 105.043 123.168 106.133 122.793 107.211C122.418 108.289 121.949 109.355 121.387 110.41C120.848 111.465 120.25 112.508 119.594 113.539C118.938 114.547 118.328 115.543 117.766 116.527C117.227 117.488 116.77 118.438 116.395 119.375C116.02 120.312 115.832 121.215 115.832 122.082C115.832 122.504 115.879 122.855 115.973 123.137C116.09 123.395 116.23 123.605 116.395 123.77C116.582 123.91 116.781 124.004 116.992 124.051C117.203 124.098 117.414 124.121 117.625 124.121C118.07 124.121 118.586 123.922 119.172 123.523C119.781 123.102 120.426 122.562 121.105 121.906C121.785 121.227 122.477 120.465 123.18 119.621C123.906 118.754 124.598 117.875 125.254 116.984C125.934 116.07 126.566 115.18 127.152 114.312C127.738 113.422 128.254 112.613 128.699 111.887L130 112.871C129.742 113.387 129.355 114.066 128.84 114.91C128.348 115.754 127.762 116.668 127.082 117.652C126.402 118.613 125.652 119.586 124.832 120.57C124.035 121.531 123.191 122.41 122.301 123.207C121.41 124.004 120.496 124.648 119.559 125.141C118.645 125.656 117.742 125.914 116.852 125.914C116.242 125.914 115.656 125.82 115.094 125.633C114.531 125.445 114.039 125.164 113.617 124.789C113.195 124.391 112.855 123.887 112.598 123.277C112.34 122.668 112.211 121.941 112.211 121.098C112.211 120.09 112.41 118.93 112.809 117.617C113.23 116.305 114.027 114.805 115.199 113.117C116.16 111.734 116.992 110.586 117.695 109.672C118.398 108.734 118.973 107.926 119.418 107.246C119.887 106.543 120.227 105.91 120.438 105.348C120.648 104.762 120.754 104.117 120.754 103.414C120.754 102.805 120.578 102.336 120.227 102.008C119.875 101.68 119.477 101.516 119.031 101.516C117.836 101.516 116.605 101.855 115.34 102.535C114.074 103.215 112.82 104.117 111.578 105.242C110.336 106.344 109.117 107.609 107.922 109.039C106.727 110.469 105.59 111.934 104.512 113.434C103.457 114.91 102.473 116.363 101.559 117.793C100.668 119.223 99.8945 120.512 99.2383 121.66C98.582 122.785 98.0781 123.699 97.7266 124.402C97.3516 125.082 97.1523 125.434 97.1289 125.457C96.1445 127.473 95.1836 129.418 94.2461 131.293C93.3086 133.191 92.4297 134.984 91.6094 136.672C90.7656 138.359 89.9922 139.895 89.2891 141.277C88.5859 142.684 87.9766 143.902 87.4609 144.934C86.9453 145.965 86.5469 146.773 86.2656 147.359C85.9609 147.945 85.7969 148.25 85.7734 148.273L81.9414 146.094C83.8633 142.461 85.5977 139.18 87.1445 136.25C88.6914 133.32 90.168 130.555 91.5742 127.953C92.9805 125.375 94.3633 122.867 95.7227 120.43C97.082 117.992 98.5234 115.449 100.047 112.801C101.57 110.129 103.223 107.27 105.004 104.223C106.809 101.152 108.859 97.6953 111.156 93.8516L112.387 94.3438ZM144.52 93.8164C144.52 94.2852 144.402 94.7773 144.168 95.293C143.934 95.7852 143.629 96.2305 143.254 96.6289C142.902 97.0273 142.504 97.3555 142.059 97.6133C141.613 97.8711 141.168 98 140.723 98C140.324 98 140.02 97.8594 139.809 97.5781C139.598 97.2734 139.492 96.9102 139.492 96.4883C139.492 96.1133 139.562 95.668 139.703 95.1523C139.844 94.6367 140.055 94.1562 140.336 93.7109C140.617 93.2422 140.957 92.8438 141.355 92.5156C141.754 92.1875 142.211 92.0234 142.727 92.0234C143.219 92.0234 143.641 92.2109 143.992 92.5859C144.344 92.9609 144.52 93.3711 144.52 93.8164ZM137.945 101.621C137.641 102.23 137.207 103.039 136.645 104.047C136.105 105.031 135.52 106.121 134.887 107.316C134.254 108.488 133.609 109.73 132.953 111.043C132.297 112.332 131.699 113.598 131.16 114.84C130.645 116.059 130.223 117.207 129.895 118.285C129.566 119.363 129.402 120.277 129.402 121.027C129.402 121.707 129.543 122.176 129.824 122.434C130.105 122.668 130.504 122.785 131.02 122.785C131.98 122.785 132.918 122.469 133.832 121.836C134.746 121.203 135.648 120.383 136.539 119.375C137.453 118.344 138.344 117.172 139.211 115.859C140.078 114.547 140.945 113.223 141.812 111.887L143.078 112.871C142.398 114.09 141.625 115.391 140.758 116.773C139.914 118.156 138.965 119.445 137.91 120.641C136.855 121.812 135.695 122.785 134.43 123.559C133.164 124.332 131.781 124.719 130.281 124.719C128.875 124.719 127.797 124.297 127.047 123.453C126.297 122.609 125.922 121.52 125.922 120.184C125.922 118.613 126.285 116.973 127.012 115.262C127.738 113.551 128.641 111.863 129.719 110.199C130.82 108.512 132.004 106.895 133.27 105.348C134.559 103.801 135.742 102.395 136.82 101.129L137.945 101.621ZM148.949 95.9961C149.184 95.5977 149.594 94.9062 150.18 93.9219C150.789 92.9375 151.492 91.8477 152.289 90.6523C153.109 89.457 153.988 88.2617 154.926 87.0664C155.887 85.8477 156.824 84.8164 157.738 83.9727L159.32 84.9219C158.312 86.5859 157.281 88.3555 156.227 90.2305C155.172 92.082 154.129 94.0039 153.098 95.9961H164.559L163.855 97.8242H152.148C151.094 99.9336 150.098 102.031 149.16 104.117C148.246 106.203 147.438 108.195 146.734 110.094C146.031 111.992 145.48 113.773 145.082 115.438C144.684 117.078 144.484 118.508 144.484 119.727C144.484 121.25 144.836 122.352 145.539 123.031C146.242 123.688 147.109 124.016 148.141 124.016C149.055 124.016 149.992 123.746 150.953 123.207C151.914 122.645 152.852 121.941 153.766 121.098C154.703 120.254 155.582 119.328 156.402 118.32C157.246 117.312 157.984 116.363 158.617 115.473C159.273 114.582 159.812 113.809 160.234 113.152C160.656 112.473 160.914 112.051 161.008 111.887L162.309 112.871C161.488 114.23 160.562 115.672 159.531 117.195C158.5 118.719 157.352 120.137 156.086 121.449C154.844 122.738 153.484 123.816 152.008 124.684C150.531 125.527 148.938 125.949 147.227 125.949C146.172 125.949 145.246 125.762 144.449 125.387C143.676 125.012 143.02 124.496 142.48 123.84C141.941 123.16 141.543 122.363 141.285 121.449C141.004 120.535 140.863 119.539 140.863 118.461C140.863 117.758 140.98 116.762 141.215 115.473C141.426 114.184 141.801 112.66 142.34 110.902C142.879 109.121 143.594 107.129 144.484 104.926C145.398 102.723 146.547 100.355 147.93 97.8242H142.094L142.797 95.9961H148.949ZM188.957 101.621C188.652 102.23 188.219 103.027 187.656 104.012C187.117 104.996 186.531 106.086 185.898 107.281C185.266 108.453 184.621 109.684 183.965 110.973C183.332 112.262 182.746 113.527 182.207 114.77C181.691 115.988 181.258 117.148 180.906 118.25C180.578 119.328 180.414 120.242 180.414 120.992C180.414 121.742 180.555 122.234 180.836 122.469C181.141 122.68 181.527 122.785 181.996 122.785C182.676 122.785 183.367 122.586 184.07 122.188C184.797 121.789 185.5 121.273 186.18 120.641C186.883 120.008 187.562 119.293 188.219 118.496C188.875 117.699 189.484 116.902 190.047 116.105C190.633 115.285 191.16 114.512 191.629 113.785C192.098 113.035 192.496 112.402 192.824 111.887L194.09 112.871C193.691 113.621 193.223 114.43 192.684 115.297C192.145 116.164 191.547 117.043 190.891 117.934C190.258 118.801 189.566 119.645 188.816 120.465C188.066 121.285 187.27 122.012 186.426 122.645C185.605 123.277 184.738 123.781 183.824 124.156C182.91 124.531 181.973 124.719 181.012 124.719C179.605 124.719 178.574 124.297 177.918 123.453C177.262 122.609 176.934 121.52 176.934 120.184C176.934 120.09 176.934 119.891 176.934 119.586C176.957 119.258 176.992 119 177.039 118.812C175.867 120.289 174.742 121.508 173.664 122.469C172.609 123.43 171.578 124.191 170.57 124.754C169.586 125.316 168.625 125.703 167.688 125.914C166.773 126.148 165.895 126.266 165.051 126.266C164.16 126.266 163.316 126.113 162.52 125.809C161.746 125.527 161.066 125.105 160.48 124.543C159.871 123.98 159.402 123.289 159.074 122.469C158.723 121.648 158.547 120.699 158.547 119.621C158.547 118.285 158.852 116.762 159.461 115.051C160.047 113.316 161.102 111.453 162.625 109.461C163.914 107.75 165.25 106.309 166.633 105.137C168.039 103.965 169.41 103.027 170.746 102.324C172.105 101.598 173.395 101.082 174.613 100.777C175.832 100.473 176.922 100.32 177.883 100.32C180.039 100.32 181.668 100.684 182.77 101.41C183.871 102.113 184.539 103.203 184.773 104.68C185.242 104.094 185.734 103.508 186.25 102.922C186.766 102.336 187.293 101.738 187.832 101.129L188.957 101.621ZM178.164 114.98C178.469 114.488 178.844 113.867 179.289 113.117C179.734 112.344 180.203 111.559 180.695 110.762C181.188 109.941 181.668 109.156 182.137 108.406C182.605 107.656 183.016 107.023 183.367 106.508C183.367 106.297 183.332 105.957 183.262 105.488C183.215 105.02 183.062 104.551 182.805 104.082C182.547 103.59 182.137 103.168 181.574 102.816C181.012 102.465 180.227 102.289 179.219 102.289C178.492 102.289 177.672 102.406 176.758 102.641C175.867 102.852 174.906 103.227 173.875 103.766C172.867 104.281 171.824 104.973 170.746 105.84C169.668 106.707 168.59 107.785 167.512 109.074C165.895 111.02 164.641 112.977 163.75 114.945C162.883 116.891 162.449 118.648 162.449 120.219C162.449 121.555 162.754 122.586 163.363 123.312C163.973 124.039 164.84 124.402 165.965 124.402C167.254 124.402 168.461 124.121 169.586 123.559C170.711 122.973 171.766 122.223 172.75 121.309C173.734 120.395 174.672 119.387 175.562 118.285C176.453 117.16 177.32 116.059 178.164 114.98ZM218.312 73.8477C219.133 73.8477 219.812 74.0469 220.352 74.4453C220.914 74.8438 221.195 75.5703 221.195 76.625C221.195 77.3516 221.043 78.2188 220.738 79.2266C220.457 80.2344 220.059 81.3359 219.543 82.5312C219.051 83.7031 218.465 84.9453 217.785 86.2578C217.105 87.5469 216.367 88.8359 215.57 90.125C214.797 91.4141 213.977 92.668 213.109 93.8867C212.266 95.1055 211.422 96.2305 210.578 97.2617C208.891 99.3477 207.426 101.105 206.184 102.535C204.965 103.965 203.91 105.184 203.02 106.191C202.129 107.176 201.379 107.984 200.77 108.617C200.16 109.227 199.621 109.754 199.152 110.199C198.684 110.645 198.25 111.055 197.852 111.43C197.453 111.781 197.043 112.18 196.621 112.625C196.434 113.516 196.34 114.371 196.34 115.191C196.363 115.988 196.375 116.727 196.375 117.406C196.375 119.445 196.703 120.957 197.359 121.941C198.016 122.926 198.941 123.418 200.137 123.418C200.934 123.418 201.73 123.219 202.527 122.82C203.348 122.398 204.156 121.859 204.953 121.203C205.75 120.547 206.523 119.809 207.273 118.988C208.023 118.145 208.727 117.301 209.383 116.457C210.062 115.59 210.672 114.758 211.211 113.961C211.75 113.164 212.219 112.473 212.617 111.887L213.918 112.871C213.848 112.965 213.613 113.34 213.215 113.996C212.84 114.629 212.336 115.402 211.703 116.316C211.07 117.23 210.32 118.215 209.453 119.27C208.586 120.301 207.648 121.262 206.641 122.152C205.633 123.043 204.566 123.781 203.441 124.367C202.34 124.953 201.215 125.246 200.066 125.246C199.105 125.246 198.18 125.07 197.289 124.719C196.422 124.344 195.648 123.77 194.969 122.996C194.312 122.199 193.773 121.191 193.352 119.973C192.953 118.754 192.754 117.289 192.754 115.578C192.754 113.445 193 111.219 193.492 108.898C194.008 106.555 194.699 104.211 195.566 101.867C196.434 99.5 197.453 97.168 198.625 94.8711C199.797 92.5742 201.039 90.3945 202.352 88.332C203.688 86.2461 205.07 84.3242 206.5 82.5664C207.953 80.7852 209.371 79.25 210.754 77.9609C212.16 76.6719 213.508 75.6641 214.797 74.9375C216.086 74.2109 217.258 73.8477 218.312 73.8477ZM197.254 109.496C199.246 107.434 201.168 105.348 203.02 103.238C204.895 101.105 206.641 99.0078 208.258 96.9453C209.898 94.8594 211.398 92.8438 212.758 90.8984C214.117 88.9297 215.277 87.0781 216.238 85.3438C217.199 83.6094 217.949 82.0273 218.488 80.5977C219.027 79.168 219.297 77.9375 219.297 76.9062C219.297 76.7188 219.203 76.4727 219.016 76.168C218.828 75.8398 218.605 75.6758 218.348 75.6758C217.621 75.6758 216.66 76.1562 215.465 77.1172C214.27 78.0781 212.969 79.3906 211.562 81.0547C210.18 82.6953 208.738 84.6172 207.238 86.8203C205.762 89.0234 204.367 91.3789 203.055 93.8867C201.742 96.3945 200.57 98.9844 199.539 101.656C198.508 104.328 197.746 106.941 197.254 109.496Z" fill="white"/>
<path d="M245.051 105.873L245.502 105.969L243.916 111H229.561V110.494H230.258C231.042 110.494 231.602 110.239 231.939 109.729C232.131 109.437 232.227 108.762 232.227 107.705V95.7422C232.227 94.5846 232.099 93.86 231.844 93.5684C231.488 93.1673 230.96 92.9668 230.258 92.9668H229.561V92.4609H237.955V92.9668C236.971 92.9577 236.278 93.0488 235.877 93.2402C235.485 93.4316 235.216 93.6732 235.07 93.9648C234.924 94.2565 234.852 94.9538 234.852 96.0566V107.705C234.852 108.462 234.924 108.981 235.07 109.264C235.18 109.455 235.348 109.596 235.576 109.688C235.804 109.779 236.515 109.824 237.709 109.824H239.062C240.484 109.824 241.482 109.719 242.057 109.51C242.631 109.3 243.155 108.931 243.629 108.402C244.103 107.865 244.577 107.021 245.051 105.873ZM262.168 105.873L262.619 105.969L261.033 111H246.678V110.494H247.375C248.159 110.494 248.719 110.239 249.057 109.729C249.248 109.437 249.344 108.762 249.344 107.705V95.7422C249.344 94.5846 249.216 93.86 248.961 93.5684C248.605 93.1673 248.077 92.9668 247.375 92.9668H246.678V92.4609H255.072V92.9668C254.088 92.9577 253.395 93.0488 252.994 93.2402C252.602 93.4316 252.333 93.6732 252.188 93.9648C252.042 94.2565 251.969 94.9538 251.969 96.0566V107.705C251.969 108.462 252.042 108.981 252.188 109.264C252.297 109.455 252.465 109.596 252.693 109.688C252.921 109.779 253.632 109.824 254.826 109.824H256.18C257.602 109.824 258.6 109.719 259.174 109.51C259.748 109.3 260.272 108.931 260.746 108.402C261.22 107.865 261.694 107.021 262.168 105.873ZM280.092 92.0371L280.516 98.3398H280.092C279.527 96.4531 278.72 95.0951 277.672 94.2656C276.624 93.4362 275.366 93.0215 273.898 93.0215C272.668 93.0215 271.556 93.3359 270.562 93.9648C269.569 94.5846 268.785 95.5781 268.211 96.9453C267.646 98.3125 267.363 100.012 267.363 102.045C267.363 103.722 267.632 105.176 268.17 106.406C268.708 107.637 269.514 108.58 270.59 109.236C271.674 109.893 272.91 110.221 274.295 110.221C275.498 110.221 276.56 109.965 277.48 109.455C278.401 108.936 279.413 107.91 280.516 106.379L280.939 106.652C280.01 108.302 278.925 109.51 277.686 110.275C276.446 111.041 274.974 111.424 273.27 111.424C270.198 111.424 267.819 110.285 266.133 108.006C264.875 106.311 264.246 104.314 264.246 102.018C264.246 100.167 264.661 98.4674 265.49 96.918C266.32 95.3685 267.459 94.1699 268.908 93.3223C270.367 92.4655 271.957 92.0371 273.68 92.0371C275.02 92.0371 276.341 92.3652 277.645 93.0215C278.027 93.222 278.301 93.3223 278.465 93.3223C278.711 93.3223 278.925 93.2357 279.107 93.0625C279.344 92.8164 279.513 92.4746 279.613 92.0371H280.092ZM285.41 108.348C285.839 108.348 286.199 108.498 286.49 108.799C286.782 109.09 286.928 109.446 286.928 109.865C286.928 110.285 286.777 110.645 286.477 110.945C286.185 111.237 285.829 111.383 285.41 111.383C284.991 111.383 284.631 111.237 284.33 110.945C284.038 110.645 283.893 110.285 283.893 109.865C283.893 109.437 284.038 109.077 284.33 108.785C284.631 108.493 284.991 108.348 285.41 108.348Z" fill="white"/>
</svg>
