<svg width="307" height="166" viewBox="0 0 307 166" fill="none" xmlns="http://www.w3.org/2000/svg">
<rect width="307" height="166" fill="#076E9F"/>
<path d="M113.098 22.4453C112.723 22.9141 112.359 23.3711 112.008 23.8164C111.68 24.2383 111.352 24.6836 111.023 25.1523C113.391 26.0195 115.301 27.0977 116.754 28.3867C118.207 29.6523 119.332 30.9883 120.129 32.3945C120.926 33.7773 121.453 35.1484 121.711 36.5078C121.992 37.8438 122.133 39.0039 122.133 39.9883C122.133 41.3711 121.898 42.6953 121.43 43.9609C120.984 45.2031 120.375 46.3398 119.602 47.3711C118.852 48.4023 117.973 49.3047 116.965 50.0781C115.957 50.8281 114.902 51.4023 113.801 51.8008C116.074 53.6758 117.762 55.7617 118.863 58.0586C119.988 60.3555 120.551 62.6758 120.551 65.0195C120.551 66.9883 120.141 68.8516 119.32 70.6094C118.523 72.3672 117.434 73.9023 116.051 75.2148C114.668 76.5273 113.027 77.5703 111.129 78.3438C109.254 79.1172 107.25 79.5039 105.117 79.5039C103.266 79.5039 101.555 79.1992 99.9844 78.5898C98.4375 78.0039 97.043 77.1953 95.8008 76.1641C94.582 75.1328 93.5156 73.9141 92.6016 72.5078C91.7109 71.1016 91.0078 69.6016 90.4922 68.0078L92.25 67.4805C93.1172 70.293 94.5469 72.4609 96.5391 73.9844C98.5312 75.5312 100.934 76.3047 103.746 76.3047C105.48 76.3047 107.133 75.9766 108.703 75.3203C110.297 74.6875 111.691 73.8203 112.887 72.7188C114.082 71.5938 115.031 70.2812 115.734 68.7812C116.438 67.2578 116.789 65.6172 116.789 63.8594C116.789 62.6641 116.625 61.5273 116.297 60.4492C115.969 59.3711 115.535 58.3516 114.996 57.3906C114.457 56.4297 113.848 55.5508 113.168 54.7539C112.512 53.9336 111.832 53.207 111.129 52.5742C110.496 52.6914 109.863 52.7852 109.23 52.8555C108.598 52.9258 107.977 52.9609 107.367 52.9609C106.523 52.9609 105.656 52.9023 104.766 52.7852C103.898 52.6445 103.102 52.4453 102.375 52.1875C101.672 51.9297 101.086 51.5898 100.617 51.168C100.172 50.7461 99.9492 50.2305 99.9492 49.6211C99.9492 49.4805 99.9844 49.2812 100.055 49.0234C100.125 48.7422 100.266 48.4727 100.477 48.2148C100.711 47.957 101.051 47.7344 101.496 47.5469C101.941 47.3359 102.551 47.2305 103.324 47.2305C104.051 47.2305 104.777 47.3125 105.504 47.4766C106.254 47.6406 106.969 47.8633 107.648 48.1445C108.328 48.4023 108.984 48.707 109.617 49.0586C110.25 49.3867 110.824 49.7266 111.34 50.0781C112.184 49.7031 113.027 49.1992 113.871 48.5664C114.738 47.9102 115.523 47.1133 116.227 46.1758C116.93 45.2383 117.504 44.1602 117.949 42.9414C118.395 41.7227 118.617 40.3516 118.617 38.8281C118.617 36.1562 117.879 33.7539 116.402 31.6211C114.926 29.4883 112.734 27.8594 109.828 26.7344C108.422 28.7031 107.109 30.6602 105.891 32.6055C104.672 34.5508 103.535 36.4961 102.48 38.4414C101.426 40.3867 100.43 42.332 99.4922 44.2773C98.5781 46.2227 97.6992 48.1914 96.8555 50.1836C94.9102 54.7305 93.0117 58.6211 91.1602 61.8555C89.3086 65.0664 87.3281 67.6914 85.2188 69.7305C83.1328 71.7695 80.8477 73.2578 78.3633 74.1953C75.9023 75.1562 73.0781 75.6367 69.8906 75.6367C67.4297 75.6367 65.3086 75.2266 63.5273 74.4062C61.7461 73.6094 60.2812 72.5078 59.1328 71.1016C57.9844 69.6953 57.1289 68.0664 56.5664 66.2148C56.0273 64.3398 55.7578 62.3477 55.7578 60.2383C55.7578 57.8945 56.1328 55.4805 56.8828 52.9961C57.6328 50.4883 58.7461 47.9922 60.2227 45.5078C61.1602 43.9375 62.3203 42.3086 63.7031 40.6211C65.0859 38.9102 66.668 37.2344 68.4492 35.5938C70.2305 33.9297 72.2109 32.3594 74.3906 30.8828C76.5938 29.3828 78.9609 28.082 81.4922 26.9805C84.0469 25.8555 86.7656 24.9648 89.6484 24.3086C92.5547 23.6289 95.6133 23.2891 98.8242 23.2891C100.793 23.2891 102.586 23.3945 104.203 23.6055C105.844 23.793 107.355 24.0742 108.738 24.4492C109.277 23.9102 109.816 23.3711 110.355 22.832C110.918 22.293 111.492 21.7539 112.078 21.2148L113.098 22.4453ZM99.1055 37.0352C100.348 34.9727 101.637 33.0391 102.973 31.2344C104.332 29.4062 105.785 27.6484 107.332 25.9609C106.441 25.75 105.492 25.5859 104.484 25.4688C103.5 25.3516 102.457 25.293 101.355 25.293C97.8164 25.293 94.3242 25.7852 90.8789 26.7695C87.457 27.7305 84.1875 29.0781 81.0703 30.8125C77.9766 32.5469 75.1055 34.6094 72.457 37C69.8086 39.3906 67.5117 41.9922 65.5664 44.8047C63.6445 47.5938 62.1328 50.5469 61.0312 53.6641C59.9531 56.7812 59.4141 59.9453 59.4141 63.1562C59.4141 64.75 59.625 66.2031 60.0469 67.5156C60.4922 68.8047 61.1484 69.918 62.0156 70.8555C62.8828 71.7695 63.9492 72.4844 65.2148 73C66.5039 73.4922 67.9805 73.7383 69.6445 73.7383C72.4336 73.7383 74.8711 73.2227 76.957 72.1914C79.043 71.1367 80.8945 69.707 82.5117 67.9023C84.1523 66.0977 85.6289 64 86.9414 61.6094C88.2539 59.1953 89.5312 56.6289 90.7734 53.9102C92.0391 51.1914 93.3281 48.3906 94.6406 45.5078C95.9531 42.625 97.4414 39.8008 99.1055 37.0352ZM108.949 50.7812C108.598 50.5234 108.176 50.2891 107.684 50.0781C107.215 49.8438 106.723 49.6562 106.207 49.5156C105.691 49.3516 105.176 49.2227 104.66 49.1289C104.145 49.0352 103.699 48.9883 103.324 48.9883C102.668 48.9883 102.246 49.0703 102.059 49.2344C101.895 49.375 101.812 49.5039 101.812 49.6211C101.812 49.832 101.965 50.0195 102.27 50.1836C102.598 50.3477 102.996 50.5 103.465 50.6406C103.957 50.7578 104.496 50.8516 105.082 50.9219C105.668 50.9922 106.242 51.0273 106.805 51.0273C107.062 51.0273 107.355 51.0156 107.684 50.9922C108.012 50.9688 108.434 50.8984 108.949 50.7812ZM154.652 49.6211C154.348 50.2305 153.914 51.0273 153.352 52.0117C152.812 52.9961 152.227 54.0859 151.594 55.2812C150.961 56.4531 150.316 57.6836 149.66 58.9727C149.027 60.2617 148.441 61.5273 147.902 62.7695C147.387 63.9883 146.953 65.1484 146.602 66.25C146.273 67.3281 146.109 68.2422 146.109 68.9922C146.109 69.7422 146.25 70.2344 146.531 70.4688C146.836 70.6797 147.223 70.7852 147.691 70.7852C148.371 70.7852 149.062 70.5859 149.766 70.1875C150.492 69.7891 151.195 69.2734 151.875 68.6406C152.578 68.0078 153.258 67.293 153.914 66.4961C154.57 65.6992 155.18 64.9023 155.742 64.1055C156.328 63.2852 156.855 62.5117 157.324 61.7852C157.793 61.0352 158.191 60.4023 158.52 59.8867L159.785 60.8711C159.387 61.6211 158.918 62.4297 158.379 63.2969C157.84 64.1641 157.242 65.043 156.586 65.9336C155.953 66.8008 155.262 67.6445 154.512 68.4648C153.762 69.2852 152.965 70.0117 152.121 70.6445C151.301 71.2773 150.434 71.7812 149.52 72.1562C148.605 72.5312 147.668 72.7188 146.707 72.7188C145.301 72.7188 144.27 72.2969 143.613 71.4531C142.957 70.6094 142.629 69.5195 142.629 68.1836C142.629 68.0898 142.629 67.8906 142.629 67.5859C142.652 67.2578 142.688 67 142.734 66.8125C141.562 68.2891 140.438 69.5078 139.359 70.4688C138.305 71.4297 137.273 72.1914 136.266 72.7539C135.281 73.3164 134.32 73.7031 133.383 73.9141C132.469 74.1484 131.59 74.2656 130.746 74.2656C129.855 74.2656 129.012 74.1133 128.215 73.8086C127.441 73.5273 126.762 73.1055 126.176 72.543C125.566 71.9805 125.098 71.2891 124.77 70.4688C124.418 69.6484 124.242 68.6992 124.242 67.6211C124.242 66.2852 124.547 64.7617 125.156 63.0508C125.742 61.3164 126.797 59.4531 128.32 57.4609C129.609 55.75 130.945 54.3086 132.328 53.1367C133.734 51.9648 135.105 51.0273 136.441 50.3242C137.801 49.5977 139.09 49.082 140.309 48.7773C141.527 48.4727 142.617 48.3203 143.578 48.3203C145.734 48.3203 147.363 48.6836 148.465 49.4102C149.566 50.1133 150.234 51.2031 150.469 52.6797C150.938 52.0938 151.43 51.5078 151.945 50.9219C152.461 50.3359 152.988 49.7383 153.527 49.1289L154.652 49.6211ZM143.859 62.9805C144.164 62.4883 144.539 61.8672 144.984 61.1172C145.43 60.3438 145.898 59.5586 146.391 58.7617C146.883 57.9414 147.363 57.1562 147.832 56.4062C148.301 55.6562 148.711 55.0234 149.062 54.5078C149.062 54.2969 149.027 53.957 148.957 53.4883C148.91 53.0195 148.758 52.5508 148.5 52.082C148.242 51.5898 147.832 51.168 147.27 50.8164C146.707 50.4648 145.922 50.2891 144.914 50.2891C144.188 50.2891 143.367 50.4062 142.453 50.6406C141.562 50.8516 140.602 51.2266 139.57 51.7656C138.562 52.2812 137.52 52.9727 136.441 53.8398C135.363 54.707 134.285 55.7852 133.207 57.0742C131.59 59.0195 130.336 60.9766 129.445 62.9453C128.578 64.8906 128.145 66.6484 128.145 68.2188C128.145 69.5547 128.449 70.5859 129.059 71.3125C129.668 72.0391 130.535 72.4023 131.66 72.4023C132.949 72.4023 134.156 72.1211 135.281 71.5586C136.406 70.9727 137.461 70.2227 138.445 69.3086C139.43 68.3945 140.367 67.3867 141.258 66.2852C142.148 65.1602 143.016 64.0586 143.859 62.9805ZM169.84 45.4023C169.723 45.6133 169.57 45.8477 169.383 46.1055C169.195 46.3398 169.008 46.6211 168.82 46.9492C168.656 47.2539 168.504 47.6172 168.363 48.0391C168.246 48.4609 168.188 48.9648 168.188 49.5508C168.188 50.043 168.305 50.7109 168.539 51.5547C168.797 52.3984 169.066 53.3711 169.348 54.4727C169.629 55.5508 169.887 56.7344 170.121 58.0234C170.379 59.2891 170.508 60.6016 170.508 61.9609C170.508 63.9531 170.238 65.7109 169.699 67.2344C169.16 68.7578 168.445 70.0586 167.555 71.1367C169.383 70.1523 171.176 68.7461 172.934 66.918C174.691 65.0664 176.461 62.7227 178.242 59.8867L179.438 60.9414C178.43 62.6055 177.281 64.2578 175.992 65.8984C174.727 67.5156 173.332 68.9805 171.809 70.293C170.285 71.582 168.645 72.625 166.887 73.4219C165.129 74.2422 163.266 74.6523 161.297 74.6523C159.539 74.6523 158.062 74.2305 156.867 73.3867C155.648 72.5664 154.898 71.3242 154.617 69.6602L155.883 69.4141C155.883 69.5547 155.953 69.7891 156.094 70.1172C156.211 70.4219 156.41 70.7266 156.691 71.0312C156.973 71.3359 157.359 71.6055 157.852 71.8398C158.32 72.0742 158.906 72.1914 159.609 72.1914C160.547 72.1914 161.379 71.9805 162.105 71.5586C162.832 71.1133 163.465 70.5391 164.004 69.8359C164.543 69.1328 165 68.3359 165.375 67.4453C165.75 66.5312 166.043 65.5938 166.254 64.6328C166.488 63.6719 166.652 62.7344 166.746 61.8203C166.84 60.9062 166.887 60.0742 166.887 59.3242C166.887 58.5742 166.852 57.7422 166.781 56.8281C166.734 55.9141 166.676 55.0469 166.605 54.2266C166.535 53.3828 166.465 52.6562 166.395 52.0469C166.348 51.4141 166.324 51.0039 166.324 50.8164V50.7461C166.02 51.0742 165.656 51.5547 165.234 52.1875C164.812 52.8203 164.355 53.5117 163.863 54.2617C163.395 55.0117 162.914 55.7734 162.422 56.5469C161.953 57.3203 161.52 58.0234 161.121 58.6562C160.746 59.2891 160.43 59.8164 160.172 60.2383C159.938 60.6367 159.82 60.8477 159.82 60.8711L158.555 59.8867C158.578 59.8633 158.871 59.3594 159.434 58.375C159.996 57.3906 160.734 56.1484 161.648 54.6484C162.586 53.125 163.641 51.4492 164.812 49.6211C165.984 47.7695 167.191 45.9766 168.434 44.2422L169.84 45.4023ZM180.914 64.9844C180.867 65.2656 180.832 65.5469 180.809 65.8281C180.785 66.1094 180.773 66.3906 180.773 66.6719C180.773 67.5156 180.891 68.3242 181.125 69.0977C181.383 69.8477 181.746 70.5156 182.215 71.1016C182.707 71.6641 183.305 72.1094 184.008 72.4375C184.734 72.7656 185.555 72.9297 186.469 72.9297C189.539 72.9297 192.504 71.8867 195.363 69.8008C198.223 67.7148 201.07 64.4102 203.906 59.8867L205.102 60.9414C203.555 63.5195 201.984 65.6992 200.391 67.4805C198.797 69.2383 197.203 70.668 195.609 71.7695C194.039 72.8711 192.492 73.668 190.969 74.1602C189.445 74.6523 187.992 74.8984 186.609 74.8984C185.602 74.8984 184.535 74.7578 183.41 74.4766C182.285 74.1953 181.242 73.7266 180.281 73.0703C179.344 72.4141 178.57 71.5352 177.961 70.4336C177.328 69.332 177.012 67.9609 177.012 66.3203C177.012 64.5625 177.316 62.875 177.926 61.2578C178.512 59.6172 179.285 58.0938 180.246 56.6875C181.207 55.2812 182.309 54.0039 183.551 52.8555C184.793 51.6836 186.047 50.6875 187.312 49.8672C188.602 49.0469 189.855 48.4141 191.074 47.9688C192.293 47.5 193.371 47.2656 194.309 47.2656C194.918 47.2656 195.539 47.3594 196.172 47.5469C196.805 47.7344 197.367 48.0273 197.859 48.4258C198.375 48.8242 198.785 49.3516 199.09 50.0078C199.418 50.6641 199.582 51.4492 199.582 52.3633C199.582 53.6055 199.289 54.7773 198.703 55.8789C198.141 56.957 197.379 57.9648 196.418 58.9023C195.457 59.8164 194.344 60.6484 193.078 61.3984C191.812 62.125 190.488 62.7461 189.105 63.2617C187.723 63.7773 186.328 64.1875 184.922 64.4922C183.516 64.7969 182.18 64.9609 180.914 64.9844ZM181.195 63.4727C182.766 63.3086 184.242 62.9805 185.625 62.4883C187.008 61.9961 188.273 61.3984 189.422 60.6953C190.57 59.9688 191.59 59.1836 192.48 58.3398C193.395 57.4961 194.156 56.6406 194.766 55.7734C195.375 54.9062 195.844 54.0742 196.172 53.2773C196.5 52.4805 196.664 51.7656 196.664 51.1328C196.664 50.5 196.488 49.9961 196.137 49.6211C195.809 49.2461 195.41 49.0586 194.941 49.0586C193.91 49.0586 192.75 49.4336 191.461 50.1836C190.172 50.9102 188.883 51.9297 187.594 53.2422C186.305 54.5312 185.086 56.0547 183.938 57.8125C182.812 59.5703 181.898 61.457 181.195 63.4727ZM243.105 26.8047C242.848 27.1797 242.426 27.8008 241.84 28.668C241.254 29.5352 240.574 30.5664 239.801 31.7617C239.027 32.957 238.184 34.2812 237.27 35.7344C236.379 37.1875 235.477 38.6875 234.562 40.2344C233.672 41.7812 232.793 43.3516 231.926 44.9453C231.082 46.5156 230.332 48.0273 229.676 49.4805C228.645 51.7305 227.789 53.7461 227.109 55.5273C226.453 57.2852 225.926 58.8555 225.527 60.2383C225.152 61.6211 224.883 62.8281 224.719 63.8594C224.578 64.8672 224.508 65.7344 224.508 66.4609C224.508 67.7969 224.707 68.7227 225.105 69.2383C225.527 69.7539 226.09 70.0117 226.793 70.0117C227.52 70.0117 228.211 69.8242 228.867 69.4492C229.547 69.0742 230.191 68.5938 230.801 68.0078C231.434 67.4219 232.02 66.7539 232.559 66.0039C233.121 65.2539 233.637 64.5039 234.105 63.7539C234.598 63.0039 235.043 62.2891 235.441 61.6094C235.84 60.9297 236.191 60.3555 236.496 59.8867L237.762 60.8711C237.504 61.293 237.176 61.8555 236.777 62.5586C236.402 63.2383 235.969 63.9883 235.477 64.8086C234.984 65.6289 234.422 66.4609 233.789 67.3047C233.156 68.125 232.453 68.875 231.68 69.5547C230.93 70.2344 230.086 70.7969 229.148 71.2422C228.234 71.6641 227.238 71.875 226.16 71.875C225.645 71.875 225.094 71.8047 224.508 71.6641C223.945 71.5234 223.418 71.2773 222.926 70.9258C222.434 70.5742 222 70.0938 221.625 69.4844C221.25 68.8516 221.004 68.0547 220.887 67.0938C219.129 68.9922 217.418 70.4336 215.754 71.418C214.09 72.3789 212.52 72.8594 211.043 72.8594C210.293 72.8594 209.461 72.7305 208.547 72.4727C207.656 72.2148 206.812 71.7695 206.016 71.1367C205.219 70.5039 204.551 69.6719 204.012 68.6406C203.473 67.5859 203.203 66.2852 203.203 64.7383C203.203 63.0039 203.473 61.3516 204.012 59.7812C204.551 58.2109 205.277 56.7578 206.191 55.4219C207.105 54.0625 208.148 52.8438 209.32 51.7656C210.516 50.6641 211.758 49.7383 213.047 48.9883C214.336 48.2148 215.625 47.6172 216.914 47.1953C218.227 46.7734 219.457 46.5625 220.605 46.5625C222.129 46.5625 223.324 46.75 224.191 47.125C225.059 47.5 225.715 47.875 226.16 48.25C226.488 47.5938 226.934 46.7617 227.496 45.7539C228.059 44.7227 228.715 43.5859 229.465 42.3438C230.215 41.0781 231.047 39.7422 231.961 38.3359C232.875 36.9062 233.848 35.4766 234.879 34.0469C235.91 32.5938 236.988 31.1641 238.113 29.7578C239.262 28.3516 240.422 27.0391 241.594 25.8203L243.105 26.8047ZM220.852 64.457C220.969 62.7227 221.367 60.6836 222.047 58.3398C222.75 55.9727 223.816 53.2539 225.246 50.1836C224.918 49.6914 224.449 49.3164 223.84 49.0586C223.254 48.7773 222.586 48.6367 221.836 48.6367C220.688 48.6367 219.516 48.8711 218.32 49.3398C217.148 49.8086 216.012 50.4414 214.91 51.2383C213.832 52.0352 212.812 52.9844 211.852 54.0859C210.891 55.1641 210.047 56.3242 209.32 57.5664C208.617 58.8086 208.055 60.1094 207.633 61.4688C207.234 62.8047 207.035 64.1289 207.035 65.4414C207.035 67.1992 207.398 68.5703 208.125 69.5547C208.875 70.5391 209.871 71.0312 211.113 71.0312C211.699 71.0312 212.344 70.9141 213.047 70.6797C213.75 70.4453 214.512 70.0703 215.332 69.5547C216.176 69.0156 217.055 68.3359 217.969 67.5156C218.883 66.6719 219.844 65.6523 220.852 64.457Z" fill="white"/>
<path d="M81.1797 73.4453C80.0078 74.6875 78.918 75.9883 77.9102 77.3477C80.1133 78.5664 82.0703 80.0312 83.7812 81.7422C85.5156 83.4297 86.9688 85.293 88.1406 87.332C89.3359 89.3711 90.2383 91.5625 90.8477 93.9062C91.4805 96.2266 91.7969 98.6289 91.7969 101.113C91.7969 103.316 91.5742 105.508 91.1289 107.688C90.707 109.867 90.0273 111.953 89.0898 113.945C88.1758 115.914 87.0039 117.754 85.5742 119.465C84.1445 121.152 82.4336 122.629 80.4414 123.895C78.4492 125.137 76.1758 126.109 73.6211 126.812C71.0664 127.539 68.1953 127.902 65.0078 127.902C62.1719 127.902 59.4766 127.633 56.9219 127.094C54.3672 126.578 51.918 126.004 49.5742 125.371C47.7695 126.59 45.7891 127.539 43.6328 128.219C41.5 128.898 39.0859 129.238 36.3906 129.238C35.2891 129.238 34.3398 129.133 33.543 128.922C32.7461 128.734 32.0898 128.465 31.5742 128.113C31.082 127.762 30.707 127.352 30.4492 126.883C30.2148 126.438 30.0977 125.969 30.0977 125.477C30.0977 124.891 30.2383 124.34 30.5195 123.824C30.8242 123.285 31.2695 122.816 31.8555 122.418C32.4648 122.02 33.2266 121.703 34.1406 121.469C35.0781 121.234 36.168 121.117 37.4102 121.117C39.1211 121.117 40.8203 121.305 42.5078 121.68C44.2188 122.031 45.9531 122.441 47.7109 122.91C49.4219 121.363 50.9805 119.512 52.3867 117.355C53.8164 115.176 55.1758 112.809 56.4648 110.254C57.7773 107.676 59.0547 104.98 60.2969 102.168C61.5625 99.3555 62.8984 96.5312 64.3047 93.6953C65.7344 90.8594 67.2695 88.082 68.9102 85.3633C70.5742 82.6445 72.4375 80.0898 74.5 77.6992C72.7422 76.9492 70.832 76.375 68.7695 75.9766C66.7305 75.5547 64.5391 75.3438 62.1953 75.3438C59.3359 75.3438 56.582 75.6367 53.9336 76.2227C51.2852 76.8086 48.8125 77.6172 46.5156 78.6484C44.2188 79.6797 42.1211 80.8867 40.2227 82.2695C38.3242 83.6523 36.6953 85.1523 35.3359 86.7695C34 88.3633 32.957 90.0391 32.207 91.7969C31.4805 93.5312 31.1172 95.2656 31.1172 97C31.1172 98.125 31.3398 99.1914 31.7852 100.199C32.2305 101.207 32.8398 102.098 33.6133 102.871C34.3867 103.621 35.3008 104.219 36.3555 104.664C37.4102 105.109 38.5586 105.332 39.8008 105.332C40.7617 105.332 41.7109 105.227 42.6484 105.016C43.6094 104.781 44.5234 104.5 45.3906 104.172C46.2578 103.844 47.0664 103.492 47.8164 103.117C48.5664 102.719 49.2227 102.355 49.7852 102.027C50.3477 101.676 50.7812 101.395 51.0859 101.184C51.4141 100.949 51.5898 100.82 51.6133 100.797L52.7383 102.273C51.6367 103 50.4883 103.703 49.293 104.383C48.1211 105.039 46.9023 105.637 45.6367 106.176C44.3711 106.691 43.0586 107.113 41.6992 107.441C40.3398 107.746 38.957 107.898 37.5508 107.898C36.1445 107.898 34.8086 107.664 33.543 107.195C32.2773 106.703 31.1641 106.023 30.2031 105.156C29.2656 104.266 28.5156 103.211 27.9531 101.992C27.3906 100.773 27.1094 99.4258 27.1094 97.9492C27.1094 96.2617 27.4844 94.4922 28.2344 92.6406C29.0078 90.7891 30.0977 88.9609 31.5039 87.1562C32.9336 85.3281 34.6797 83.5938 36.7422 81.9531C38.8047 80.3125 41.125 78.8711 43.7031 77.6289C46.3047 76.3633 49.1523 75.3672 52.2461 74.6406C55.3633 73.8906 58.6797 73.5156 62.1953 73.5156C64.75 73.5156 67.1523 73.7617 69.4023 74.2539C71.6758 74.7227 73.7969 75.4023 75.7656 76.293C77.1016 74.8633 78.543 73.5273 80.0898 72.2852L81.1797 73.4453ZM87.9648 98.7227C87.9648 96.543 87.7188 94.4688 87.2266 92.5C86.7344 90.5312 86.0078 88.7031 85.0469 87.0156C84.1094 85.3281 82.9492 83.793 81.5664 82.4102C80.1836 81.0273 78.6016 79.8438 76.8203 78.8594C75.1094 81.3203 73.5508 83.9219 72.1445 86.6641C70.7383 89.4062 69.4141 92.1836 68.1719 94.9961C66.9297 97.8086 65.7109 100.598 64.5156 103.363C63.3203 106.129 62.0664 108.777 60.7539 111.309C59.4648 113.816 58.0586 116.16 56.5352 118.34C55.0117 120.496 53.3008 122.371 51.4023 123.965C53.2773 124.48 55.1523 124.926 57.0273 125.301C58.9023 125.699 60.8359 125.898 62.8281 125.898C66.9531 125.898 70.5859 125.195 73.7266 123.789C76.8672 122.359 79.4922 120.426 81.6016 117.988C83.7109 115.527 85.293 112.645 86.3477 109.34C87.4258 106.035 87.9648 102.496 87.9648 98.7227ZM36.25 127.41C38.1484 127.41 39.8828 127.141 41.4531 126.602C43.0469 126.086 44.5234 125.336 45.8828 124.352C44.3359 123.953 42.8594 123.625 41.4531 123.367C40.0469 123.086 38.6992 122.945 37.4102 122.945C35.582 122.945 34.2109 123.191 33.2969 123.684C32.4062 124.152 31.9609 124.727 31.9609 125.406C31.9609 125.945 32.2773 126.414 32.9102 126.812C33.5664 127.211 34.6797 127.41 36.25 127.41ZM97.9844 115.984C97.9375 116.266 97.9023 116.547 97.8789 116.828C97.8555 117.109 97.8438 117.391 97.8438 117.672C97.8438 118.516 97.9609 119.324 98.1953 120.098C98.4531 120.848 98.8164 121.516 99.2852 122.102C99.7773 122.664 100.375 123.109 101.078 123.438C101.805 123.766 102.625 123.93 103.539 123.93C106.609 123.93 109.574 122.887 112.434 120.801C115.293 118.715 118.141 115.41 120.977 110.887L122.172 111.941C120.625 114.52 119.055 116.699 117.461 118.48C115.867 120.238 114.273 121.668 112.68 122.77C111.109 123.871 109.562 124.668 108.039 125.16C106.516 125.652 105.062 125.898 103.68 125.898C102.672 125.898 101.605 125.758 100.48 125.477C99.3555 125.195 98.3125 124.727 97.3516 124.07C96.4141 123.414 95.6406 122.535 95.0312 121.434C94.3984 120.332 94.082 118.961 94.082 117.32C94.082 115.562 94.3867 113.875 94.9961 112.258C95.582 110.617 96.3555 109.094 97.3164 107.688C98.2773 106.281 99.3789 105.004 100.621 103.855C101.863 102.684 103.117 101.688 104.383 100.867C105.672 100.047 106.926 99.4141 108.145 98.9688C109.363 98.5 110.441 98.2656 111.379 98.2656C111.988 98.2656 112.609 98.3594 113.242 98.5469C113.875 98.7344 114.438 99.0273 114.93 99.4258C115.445 99.8242 115.855 100.352 116.16 101.008C116.488 101.664 116.652 102.449 116.652 103.363C116.652 104.605 116.359 105.777 115.773 106.879C115.211 107.957 114.449 108.965 113.488 109.902C112.527 110.816 111.414 111.648 110.148 112.398C108.883 113.125 107.559 113.746 106.176 114.262C104.793 114.777 103.398 115.188 101.992 115.492C100.586 115.797 99.25 115.961 97.9844 115.984ZM98.2656 114.473C99.8359 114.309 101.312 113.98 102.695 113.488C104.078 112.996 105.344 112.398 106.492 111.695C107.641 110.969 108.66 110.184 109.551 109.34C110.465 108.496 111.227 107.641 111.836 106.773C112.445 105.906 112.914 105.074 113.242 104.277C113.57 103.48 113.734 102.766 113.734 102.133C113.734 101.5 113.559 100.996 113.207 100.621C112.879 100.246 112.48 100.059 112.012 100.059C110.98 100.059 109.82 100.434 108.531 101.184C107.242 101.91 105.953 102.93 104.664 104.242C103.375 105.531 102.156 107.055 101.008 108.812C99.8828 110.57 98.9688 112.457 98.2656 114.473ZM179.512 82.375C179.488 82.375 179.055 82.7969 178.211 83.6406C177.367 84.4609 176.242 85.7266 174.836 87.4375C173.43 89.125 171.801 91.2695 169.949 93.8711C168.121 96.4492 166.199 99.4961 164.184 103.012L162.812 105.402C163.586 105.215 164.371 105.039 165.168 104.875C165.965 104.711 166.773 104.559 167.594 104.418L169.176 104.102C169.926 102.742 170.605 101.629 171.215 100.762C171.848 99.8945 172.422 99.2148 172.938 98.7227C173.477 98.207 173.969 97.8555 174.414 97.668C174.859 97.4805 175.258 97.3867 175.609 97.3867C176.055 97.3867 176.488 97.5391 176.91 97.8438C177.332 98.1484 177.543 98.6992 177.543 99.4961C177.543 100.129 177.391 100.738 177.086 101.324C176.781 101.91 176.348 102.461 175.785 102.977C175.223 103.492 174.555 103.949 173.781 104.348C173.008 104.746 172.152 105.062 171.215 105.297C170.77 106.211 170.312 107.172 169.844 108.18C169.375 109.164 168.883 110.16 168.367 111.168C167.852 112.176 167.324 113.172 166.785 114.156C166.246 115.117 165.684 116.031 165.098 116.898L162.602 114.543C162.812 114.285 163.129 113.875 163.551 113.312C163.996 112.75 164.465 112.117 164.957 111.414C165.473 110.711 165.977 109.973 166.469 109.199C166.961 108.402 167.383 107.652 167.734 106.949L168.227 105.895C167.148 106.129 166.059 106.375 164.957 106.633C163.879 106.867 162.766 107.137 161.617 107.441C159.812 110.535 158.043 113.348 156.309 115.879C154.598 118.387 152.77 120.543 150.824 122.348C148.879 124.129 146.746 125.5 144.426 126.461C142.105 127.445 139.434 127.938 136.41 127.938C134.441 127.938 132.449 127.656 130.434 127.094C128.441 126.555 126.637 125.758 125.02 124.703C123.426 123.648 122.113 122.359 121.082 120.836C120.074 119.312 119.57 117.578 119.57 115.633C119.57 114.109 119.875 112.762 120.484 111.59C121.07 110.395 121.879 109.398 122.91 108.602C123.941 107.781 125.137 107.172 126.496 106.773C127.879 106.352 129.332 106.141 130.855 106.141C132.121 106.141 133.387 106.293 134.652 106.598C135.941 106.902 137.184 107.336 138.379 107.898C139.574 108.461 140.699 109.152 141.754 109.973C142.832 110.77 143.793 111.672 144.637 112.68L143.301 113.699C142.598 112.996 141.812 112.375 140.945 111.836C140.078 111.273 139.152 110.805 138.168 110.43C137.184 110.031 136.176 109.738 135.145 109.551C134.113 109.34 133.094 109.234 132.086 109.234C130.984 109.234 129.906 109.375 128.852 109.656C127.797 109.938 126.859 110.395 126.039 111.027C125.219 111.637 124.551 112.434 124.035 113.418C123.52 114.379 123.262 115.562 123.262 116.969C123.262 118.234 123.578 119.418 124.211 120.52C124.844 121.621 125.699 122.582 126.777 123.402C127.879 124.199 129.156 124.832 130.609 125.301C132.086 125.77 133.656 126.004 135.32 126.004C137.688 126.004 139.82 125.559 141.719 124.668C143.617 123.801 145.363 122.605 146.957 121.082C148.574 119.559 150.086 117.777 151.492 115.738C152.922 113.676 154.34 111.484 155.746 109.164C155.09 109.375 154.422 109.598 153.742 109.832C153.062 110.066 152.383 110.312 151.703 110.57L151.035 108.848C152.113 108.496 153.145 108.168 154.129 107.863C155.113 107.559 156.098 107.254 157.082 106.949C158.418 104.723 159.801 102.449 161.23 100.129C162.684 97.7852 164.266 95.5 165.977 93.2734C167.688 91.0234 169.562 88.8789 171.602 86.8398C173.664 84.8008 175.961 82.9492 178.492 81.2852L179.512 82.375ZM155.781 101.5C153.625 102.484 151.48 103.199 149.348 103.645C147.215 104.09 145.211 104.312 143.336 104.312C141.156 104.312 139.164 104.02 137.359 103.434C135.555 102.848 133.996 102.027 132.684 100.973C131.371 99.918 130.352 98.6523 129.625 97.1758C128.898 95.6992 128.535 94.0703 128.535 92.2891C128.535 90.0625 128.91 88.082 129.66 86.3477C130.434 84.6133 131.477 83.0898 132.789 81.7773C134.102 80.4414 135.648 79.3164 137.43 78.4023C139.211 77.4883 141.121 76.7383 143.16 76.1523C145.199 75.5664 147.32 75.1445 149.523 74.8867C151.727 74.6289 153.906 74.5 156.062 74.5C158.547 74.5 160.961 74.6523 163.305 74.957C165.648 75.2617 167.922 75.6016 170.125 75.9766C172.352 76.3281 174.508 76.6562 176.594 76.9609C178.68 77.2656 180.719 77.418 182.711 77.418C184.984 77.418 187.082 77.2422 189.004 76.8906C190.926 76.5391 192.578 76.1523 193.961 75.7305C195.344 75.2852 196.422 74.8867 197.195 74.5352C197.992 74.1602 198.402 73.9727 198.426 73.9727L199.305 75.5898C199.234 75.6367 198.777 75.8594 197.934 76.2578C197.09 76.6328 195.941 77.0547 194.488 77.5234C193.059 77.9688 191.348 78.3789 189.355 78.7539C187.363 79.1055 185.172 79.2812 182.781 79.2812C180.555 79.2812 178.41 79.1406 176.348 78.8594C174.285 78.5547 172.199 78.2266 170.09 77.875C168.004 77.5234 165.836 77.207 163.586 76.9258C161.336 76.6211 158.91 76.4688 156.309 76.4688C152.465 76.4688 149.066 76.8438 146.113 77.5938C143.184 78.3203 140.723 79.375 138.73 80.7578C136.762 82.1172 135.273 83.7812 134.266 85.75C133.258 87.6953 132.754 89.875 132.754 92.2891C132.754 93.9531 133.07 95.4062 133.703 96.6484C134.359 97.8906 135.227 98.9219 136.305 99.7422C137.406 100.562 138.66 101.184 140.066 101.605C141.496 102.004 142.984 102.203 144.531 102.203C145.891 102.203 147.203 102.086 148.469 101.852C149.734 101.617 150.848 101.359 151.809 101.078C152.77 100.773 153.543 100.504 154.129 100.27C154.715 100.012 155.02 99.8828 155.043 99.8828L155.781 101.5ZM175.258 99.2148C174.859 99.2148 174.402 99.5898 173.887 100.34C173.395 101.066 172.844 102.027 172.234 103.223C172.961 102.941 173.547 102.648 173.992 102.344C174.438 102.039 174.789 101.734 175.047 101.43C175.305 101.125 175.48 100.82 175.574 100.516C175.668 100.211 175.715 99.918 175.715 99.6367C175.715 99.4727 175.668 99.3672 175.574 99.3203C175.48 99.25 175.375 99.2148 175.258 99.2148ZM193.785 92.8164C193.785 93.2852 193.668 93.7773 193.434 94.293C193.199 94.7852 192.895 95.2305 192.52 95.6289C192.168 96.0273 191.77 96.3555 191.324 96.6133C190.879 96.8711 190.434 97 189.988 97C189.59 97 189.285 96.8594 189.074 96.5781C188.863 96.2734 188.758 95.9102 188.758 95.4883C188.758 95.1133 188.828 94.668 188.969 94.1523C189.109 93.6367 189.32 93.1562 189.602 92.7109C189.883 92.2422 190.223 91.8438 190.621 91.5156C191.02 91.1875 191.477 91.0234 191.992 91.0234C192.484 91.0234 192.906 91.2109 193.258 91.5859C193.609 91.9609 193.785 92.3711 193.785 92.8164ZM187.211 100.621C186.906 101.23 186.473 102.039 185.91 103.047C185.371 104.031 184.785 105.121 184.152 106.316C183.52 107.488 182.875 108.73 182.219 110.043C181.562 111.332 180.965 112.598 180.426 113.84C179.91 115.059 179.488 116.207 179.16 117.285C178.832 118.363 178.668 119.277 178.668 120.027C178.668 120.707 178.809 121.176 179.09 121.434C179.371 121.668 179.77 121.785 180.285 121.785C181.246 121.785 182.184 121.469 183.098 120.836C184.012 120.203 184.914 119.383 185.805 118.375C186.719 117.344 187.609 116.172 188.477 114.859C189.344 113.547 190.211 112.223 191.078 110.887L192.344 111.871C191.664 113.09 190.891 114.391 190.023 115.773C189.18 117.156 188.23 118.445 187.176 119.641C186.121 120.812 184.961 121.785 183.695 122.559C182.43 123.332 181.047 123.719 179.547 123.719C178.141 123.719 177.062 123.297 176.312 122.453C175.562 121.609 175.188 120.52 175.188 119.184C175.188 117.613 175.551 115.973 176.277 114.262C177.004 112.551 177.906 110.863 178.984 109.199C180.086 107.512 181.27 105.895 182.535 104.348C183.824 102.801 185.008 101.395 186.086 100.129L187.211 100.621Z" fill="white"/>
<path d="M222.051 117.873L222.502 117.969L220.916 123H206.561V122.494H207.258C208.042 122.494 208.602 122.239 208.939 121.729C209.131 121.437 209.227 120.762 209.227 119.705V107.742C209.227 106.585 209.099 105.86 208.844 105.568C208.488 105.167 207.96 104.967 207.258 104.967H206.561V104.461H214.955V104.967C213.971 104.958 213.278 105.049 212.877 105.24C212.485 105.432 212.216 105.673 212.07 105.965C211.924 106.257 211.852 106.954 211.852 108.057V119.705C211.852 120.462 211.924 120.981 212.07 121.264C212.18 121.455 212.348 121.596 212.576 121.688C212.804 121.779 213.515 121.824 214.709 121.824H216.062C217.484 121.824 218.482 121.719 219.057 121.51C219.631 121.3 220.155 120.931 220.629 120.402C221.103 119.865 221.577 119.021 222.051 117.873ZM239.168 117.873L239.619 117.969L238.033 123H223.678V122.494H224.375C225.159 122.494 225.719 122.239 226.057 121.729C226.248 121.437 226.344 120.762 226.344 119.705V107.742C226.344 106.585 226.216 105.86 225.961 105.568C225.605 105.167 225.077 104.967 224.375 104.967H223.678V104.461H232.072V104.967C231.088 104.958 230.395 105.049 229.994 105.24C229.602 105.432 229.333 105.673 229.188 105.965C229.042 106.257 228.969 106.954 228.969 108.057V119.705C228.969 120.462 229.042 120.981 229.188 121.264C229.297 121.455 229.465 121.596 229.693 121.688C229.921 121.779 230.632 121.824 231.826 121.824H233.18C234.602 121.824 235.6 121.719 236.174 121.51C236.748 121.3 237.272 120.931 237.746 120.402C238.22 119.865 238.694 119.021 239.168 117.873ZM257.092 104.037L257.516 110.34H257.092C256.527 108.453 255.72 107.095 254.672 106.266C253.624 105.436 252.366 105.021 250.898 105.021C249.668 105.021 248.556 105.336 247.562 105.965C246.569 106.585 245.785 107.578 245.211 108.945C244.646 110.312 244.363 112.012 244.363 114.045C244.363 115.722 244.632 117.176 245.17 118.406C245.708 119.637 246.514 120.58 247.59 121.236C248.674 121.893 249.91 122.221 251.295 122.221C252.498 122.221 253.56 121.965 254.48 121.455C255.401 120.936 256.413 119.91 257.516 118.379L257.939 118.652C257.01 120.302 255.925 121.51 254.686 122.275C253.446 123.041 251.974 123.424 250.27 123.424C247.198 123.424 244.819 122.285 243.133 120.006C241.875 118.311 241.246 116.314 241.246 114.018C241.246 112.167 241.661 110.467 242.49 108.918C243.32 107.368 244.459 106.17 245.908 105.322C247.367 104.465 248.957 104.037 250.68 104.037C252.02 104.037 253.341 104.365 254.645 105.021C255.027 105.222 255.301 105.322 255.465 105.322C255.711 105.322 255.925 105.236 256.107 105.062C256.344 104.816 256.513 104.475 256.613 104.037H257.092ZM262.41 120.348C262.839 120.348 263.199 120.498 263.49 120.799C263.782 121.09 263.928 121.446 263.928 121.865C263.928 122.285 263.777 122.645 263.477 122.945C263.185 123.237 262.829 123.383 262.41 123.383C261.991 123.383 261.631 123.237 261.33 122.945C261.038 122.645 260.893 122.285 260.893 121.865C260.893 121.437 261.038 121.077 261.33 120.785C261.631 120.493 261.991 120.348 262.41 120.348Z" fill="white"/>
</svg>
