<svg width="307" height="166" viewBox="0 0 307 166" fill="none" xmlns="http://www.w3.org/2000/svg">
<rect width="307" height="166" fill="#076E9F"/>
<path d="M25.496 62H32.696V59.984H32.12L25.496 60.56V62ZM30.44 62H34.856C34.712 56.624 34.712 51.152 34.712 44.336V43.424C34.712 37.712 34.712 32.384 34.856 27.056H30.44C30.536 32.432 30.536 37.808 30.536 43.184V45.68C30.536 51.2 30.536 56.672 30.44 62ZM32.696 62H39.416C49.304 62 53 57.488 53 52.544C53 47.552 49.4 43.856 40.616 43.472L40.328 43.904C48.104 43.184 51.176 39.488 51.176 35.36C51.176 30.464 47.576 27.056 39.656 27.056H32.696V28.688H38.456C44.648 28.688 47.048 31.184 47.048 35.408C47.048 40.256 43.928 43.088 37.688 43.088H32.696V44.576H38.168C45.464 44.576 48.728 47.36 48.728 52.544C48.728 57.632 45.176 60.416 39.08 60.416H32.696V62ZM25.496 28.544L32.12 29.072H32.696V27.056H25.496V28.544ZM64.2283 62.72C67.8282 62.72 69.9403 61.088 72.9163 57.824H74.0683L73.6363 55.568C69.9403 59.264 68.0683 60.368 65.9563 60.368C63.2683 60.368 61.4443 58.88 61.4443 55.856C61.4443 53.264 63.0283 51.2 67.0603 49.712C69.2203 48.896 72.0043 48.128 74.5483 47.456V46.304C71.9563 46.88 68.8843 47.696 66.1963 48.464C59.8603 50.336 57.6043 52.784 57.6043 56.48C57.6043 60.512 60.4363 62.72 64.2283 62.72ZM77.0443 62.672C78.9163 62.672 80.3563 61.904 81.4123 60.272L80.6443 59.504C79.8282 60.416 79.3003 60.704 78.4843 60.704C77.1403 60.704 76.4683 59.84 76.4683 56.864V45.008C76.4683 39.008 73.7803 36.56 68.2123 36.56C62.7883 36.56 59.1883 38.912 58.2763 42.848C58.5163 43.952 59.2843 44.528 60.3883 44.528C61.5403 44.528 62.4043 43.952 62.6443 42.224L63.4603 38.432L61.3483 39.728C63.5083 38.528 65.2843 38.048 67.1562 38.048C70.9483 38.048 72.6283 39.44 72.6283 44.768V57.248C72.8203 60.656 74.2123 62.672 77.0443 62.672ZM92.483 62.72C98.963 62.72 102.323 59.504 102.323 55.328C102.323 51.968 100.451 49.76 95.603 48.08L93.203 47.216C89.699 46.064 88.259 44.768 88.259 42.416C88.259 39.92 90.131 38.096 93.827 38.096C95.795 38.096 97.475 38.672 99.443 40.064V38.48L97.955 38.24L99.059 43.808H100.979L101.171 38.672C98.771 37.232 96.659 36.56 93.827 36.56C88.019 36.56 84.803 39.632 84.803 43.664C84.803 47.264 87.251 49.376 91.139 50.72L93.635 51.632C97.571 52.88 98.771 54.272 98.771 56.576C98.771 59.312 96.611 61.184 92.339 61.184C89.555 61.184 87.731 60.512 85.907 59.312V61.04L87.683 61.136L86.531 55.136H84.467V60.8C87.059 62.048 89.363 62.72 92.483 62.72ZM119.107 62.72C123.427 62.72 126.595 60.752 128.707 57.488L127.939 56.816C125.971 59.12 123.523 60.32 120.163 60.32C114.835 60.32 110.995 56.912 110.995 49.136C110.995 42.176 114.355 38.096 118.579 38.096C122.515 38.096 124.819 41.024 124.819 45.104C124.819 47.072 124.339 47.888 122.659 47.888H108.691V49.424H128.323C128.515 48.656 128.611 47.696 128.611 46.496C128.611 40.88 124.915 36.56 118.674 36.56C112.339 36.56 106.867 41.6 106.867 49.712C106.867 58.352 111.955 62.72 119.107 62.72ZM143.629 62.72C146.941 62.72 149.821 61.232 152.029 58.064H152.461L151.885 56.72C149.629 59.408 147.613 60.464 145.021 60.464C140.605 60.464 137.341 57.152 137.341 49.856C137.341 41.984 140.941 38.768 145.309 38.768C147.661 38.768 149.677 39.776 151.933 42.272L152.557 41.024H152.077C149.725 37.856 147.085 36.56 144.301 36.56C138.013 36.56 133.117 41.648 133.117 49.952C133.117 57.584 137.485 62.72 143.629 62.72ZM151.549 62.48L159.709 62V60.704L155.245 60.368V31.088L155.389 23.792L154.669 23.36L147.085 24.8V26.096L151.405 26.336V40.88L151.309 41.36V57.776L151.549 62.48Z" fill="white"/>
<path d="M25.496 109H32.696V106.984H32.12L25.496 107.56V109ZM30.44 109H34.904C34.808 103.672 34.808 98.296 34.808 91.864V90.808C34.808 84.808 34.808 79.384 34.904 74.056H30.44C30.536 79.432 30.536 84.808 30.536 90.232V92.872C30.536 98.296 30.536 103.72 30.44 109ZM32.696 109H51.848L52.184 100.264H50.12L48.536 108.616L50.648 107.368H32.696V109ZM32.696 92.104H44.216V90.472H32.696V92.104ZM43.88 97H45.56V85.48H43.88L43.256 90.664V91.672L43.88 97ZM25.496 75.544L32.12 76.072H32.696V74.056H25.496V75.544ZM49.256 82.696H51.32L50.984 74.056H32.696V75.784H49.832L47.672 74.44L49.256 82.696ZM56.2805 109H68.0405V107.704L63.0485 107.176H61.5125L56.2805 107.704V109ZM60.2165 109H64.4885C64.3925 106.696 64.3445 101.32 64.3445 98.056V89.656L64.0085 84.088L63.3845 83.656L55.9925 85.624V86.824L60.2165 87.064C60.3605 89.464 60.4085 91.864 60.4085 95.128V98.056C60.4085 101.32 60.3605 106.696 60.2165 109ZM72.6005 109H84.3605V107.704L79.3685 107.176H77.7845L72.6005 107.704V109ZM76.5365 109H80.7605C80.6645 106.696 80.5685 101.416 80.5685 98.056V92.584C80.5685 86.104 78.0725 83.56 73.8965 83.56C70.5365 83.56 67.0805 85.24 63.5765 89.56H63.0965L63.5285 91.144C66.9845 87.304 70.1045 86.152 72.2645 86.152C75.0485 86.152 76.6805 87.784 76.6805 92.488V98.056C76.6805 101.416 76.6325 106.696 76.5365 109ZM93.392 86.056H102.272V84.28H93.392V86.056ZM97.28 109.72C99.824 109.72 101.696 108.856 102.992 107.272L102.32 106.408C101.024 107.224 100.112 107.608 98.672 107.608C96.56 107.608 95.408 106.36 95.408 103.384V85L95.6 76.744H92.912L91.52 84.808L92.432 84.136L86.672 84.568V86.056H91.424V99.064C91.424 100.84 91.376 101.848 91.376 103.384C91.376 107.656 93.248 109.72 97.28 109.72ZM118.122 109.72C122.442 109.72 125.61 107.752 127.722 104.488L126.954 103.816C124.986 106.12 122.538 107.32 119.178 107.32C113.85 107.32 110.01 103.912 110.01 96.136C110.01 89.176 113.37 85.096 117.594 85.096C121.53 85.096 123.834 88.024 123.834 92.104C123.834 94.072 123.354 94.888 121.674 94.888H107.706V96.424H127.338C127.53 95.656 127.626 94.696 127.626 93.496C127.626 87.88 123.93 83.56 117.69 83.56C111.354 83.56 105.882 88.6 105.882 96.712C105.882 105.352 110.97 109.72 118.122 109.72ZM131.796 109H144.468V107.704L139.044 107.128H137.076L131.796 107.704V109ZM135.732 109H140.004C139.908 106.696 139.86 101.32 139.86 98.056V90.856L139.524 84.088L138.9 83.656L131.508 85.624V86.824L135.732 87.064C135.876 89.464 135.924 91.864 135.924 95.128V98.056C135.924 101.32 135.876 106.696 135.732 109ZM139.812 93.736C141.492 89.032 143.748 86.584 147.108 85.624L144.9 85.576L146.004 86.632C147.108 87.784 147.972 88.408 149.172 88.408C150.9 88.408 151.668 87.4 151.668 85.72C151.236 84.328 149.7 83.56 147.828 83.56C144.468 83.56 141.108 86.536 139.62 91.24H138.756L139.812 93.736ZM153.92 121.48H166.784V120.184L161.072 119.704H159.248L153.92 120.184V121.48ZM158 121.48H162.176C162.08 118.264 162.032 113.608 162.032 110.296V105.736L162.08 105.256V88.36L161.984 88.12L161.696 84.088L161.072 83.656L153.728 85.624V86.824L158 87.064C158.096 89.464 158.144 92.008 158.144 95.272V110.296C158.144 113.656 158.096 118.264 158 121.48ZM169.568 109.72C175.76 109.72 180.272 104.632 180.272 96.424C180.272 88.504 176.048 83.56 170.24 83.56C166.976 83.56 163.664 85 161.168 88.6H160.64L161.168 89.896C164 86.632 166.304 85.768 168.656 85.768C173.024 85.768 176 89.224 176 96.52C176 104.44 172.64 107.464 168.464 107.464C165.824 107.464 163.712 106.648 161.36 103.96L160.688 105.304H161.312C163.712 108.712 166.688 109.72 169.568 109.72ZM184.577 109H197.249V107.704L191.825 107.128H189.857L184.577 107.704V109ZM188.513 109H192.785C192.689 106.696 192.641 101.32 192.641 98.056V90.856L192.305 84.088L191.681 83.656L184.289 85.624V86.824L188.513 87.064C188.657 89.464 188.705 91.864 188.705 95.128V98.056C188.705 101.32 188.657 106.696 188.513 109ZM192.593 93.736C194.273 89.032 196.529 86.584 199.889 85.624L197.681 85.576L198.785 86.632C199.889 87.784 200.753 88.408 201.953 88.408C203.681 88.408 204.449 87.4 204.449 85.72C204.017 84.328 202.481 83.56 200.609 83.56C197.249 83.56 193.889 86.536 192.401 91.24H191.537L192.593 93.736ZM206.845 109H218.701V107.704L213.613 107.176H212.125L206.845 107.704V109ZM210.829 109H215.053C214.957 106.696 214.909 101.32 214.909 98.056V90.76L215.005 84.088L214.429 83.656L206.557 85.576V86.824L210.829 87.016C210.925 89.416 211.021 91.912 211.021 95.176V98.056C211.021 101.32 210.925 106.696 210.829 109ZM212.557 77.56C214.093 77.56 215.389 76.504 215.389 74.872C215.389 73.336 214.093 72.184 212.557 72.184C211.021 72.184 209.821 73.336 209.821 74.872C209.821 76.504 211.021 77.56 212.557 77.56ZM231.327 109.72C237.807 109.72 241.167 106.504 241.167 102.328C241.167 98.968 239.295 96.76 234.447 95.08L232.047 94.216C228.543 93.064 227.103 91.768 227.103 89.416C227.103 86.92 228.975 85.096 232.671 85.096C234.639 85.096 236.319 85.672 238.287 87.064V85.48L236.799 85.24L237.903 90.808H239.823L240.015 85.672C237.615 84.232 235.503 83.56 232.671 83.56C226.863 83.56 223.647 86.632 223.647 90.664C223.647 94.264 226.095 96.376 229.983 97.72L232.479 98.632C236.415 99.88 237.615 101.272 237.615 103.576C237.615 106.312 235.455 108.184 231.183 108.184C228.399 108.184 226.575 107.512 224.751 106.312V108.04L226.527 108.136L225.375 102.136H223.311V107.8C225.903 109.048 228.207 109.72 231.327 109.72ZM257.95 109.72C262.27 109.72 265.438 107.752 267.55 104.488L266.782 103.816C264.814 106.12 262.366 107.32 259.006 107.32C253.678 107.32 249.838 103.912 249.838 96.136C249.838 89.176 253.198 85.096 257.422 85.096C261.358 85.096 263.662 88.024 263.662 92.104C263.662 94.072 263.182 94.888 261.502 94.888H247.534V96.424H267.166C267.358 95.656 267.454 94.696 267.454 93.496C267.454 87.88 263.758 83.56 257.518 83.56C251.182 83.56 245.71 88.6 245.71 96.712C245.71 105.352 250.798 109.72 257.95 109.72Z" fill="white"/>
<path d="M42.0508 133.873L42.502 133.969L40.916 139H26.5605V138.494H27.2578C28.0417 138.494 28.6022 138.239 28.9395 137.729C29.1309 137.437 29.2266 136.762 29.2266 135.705V123.742C29.2266 122.585 29.099 121.86 28.8438 121.568C28.4883 121.167 27.9596 120.967 27.2578 120.967H26.5605V120.461H34.9551V120.967C33.9707 120.958 33.278 121.049 32.877 121.24C32.485 121.432 32.2161 121.673 32.0703 121.965C31.9245 122.257 31.8516 122.954 31.8516 124.057V135.705C31.8516 136.462 31.9245 136.981 32.0703 137.264C32.1797 137.455 32.3483 137.596 32.5762 137.688C32.804 137.779 33.515 137.824 34.709 137.824H36.0625C37.4844 137.824 38.4824 137.719 39.0566 137.51C39.6309 137.3 40.1549 136.931 40.6289 136.402C41.1029 135.865 41.5768 135.021 42.0508 133.873ZM59.168 133.873L59.6191 133.969L58.0332 139H43.6777V138.494H44.375C45.1589 138.494 45.7194 138.239 46.0566 137.729C46.248 137.437 46.3438 136.762 46.3438 135.705V123.742C46.3438 122.585 46.2161 121.86 45.9609 121.568C45.6055 121.167 45.0768 120.967 44.375 120.967H43.6777V120.461H52.0723V120.967C51.0879 120.958 50.3952 121.049 49.9941 121.24C49.6022 121.432 49.3333 121.673 49.1875 121.965C49.0417 122.257 48.9688 122.954 48.9688 124.057V135.705C48.9688 136.462 49.0417 136.981 49.1875 137.264C49.2969 137.455 49.4655 137.596 49.6934 137.688C49.9212 137.779 50.6322 137.824 51.8262 137.824H53.1797C54.6016 137.824 55.5996 137.719 56.1738 137.51C56.748 137.3 57.2721 136.931 57.7461 136.402C58.2201 135.865 58.694 135.021 59.168 133.873ZM77.0918 120.037L77.5156 126.34H77.0918C76.5267 124.453 75.7201 123.095 74.6719 122.266C73.6237 121.436 72.3659 121.021 70.8984 121.021C69.668 121.021 68.556 121.336 67.5625 121.965C66.569 122.585 65.7852 123.578 65.2109 124.945C64.6458 126.312 64.3633 128.012 64.3633 130.045C64.3633 131.722 64.6322 133.176 65.1699 134.406C65.7077 135.637 66.5143 136.58 67.5898 137.236C68.6745 137.893 69.9095 138.221 71.2949 138.221C72.498 138.221 73.5599 137.965 74.4805 137.455C75.401 136.936 76.4128 135.91 77.5156 134.379L77.9395 134.652C77.0098 136.302 75.9251 137.51 74.6855 138.275C73.446 139.041 71.974 139.424 70.2695 139.424C67.1979 139.424 64.819 138.285 63.1328 136.006C61.875 134.311 61.2461 132.314 61.2461 130.018C61.2461 128.167 61.6608 126.467 62.4902 124.918C63.3197 123.368 64.459 122.17 65.9082 121.322C67.3665 120.465 68.957 120.037 70.6797 120.037C72.0195 120.037 73.3411 120.365 74.6445 121.021C75.0273 121.222 75.3008 121.322 75.4648 121.322C75.7109 121.322 75.9251 121.236 76.1074 121.062C76.3444 120.816 76.513 120.475 76.6133 120.037H77.0918ZM82.4102 136.348C82.8385 136.348 83.1986 136.498 83.4902 136.799C83.7819 137.09 83.9277 137.446 83.9277 137.865C83.9277 138.285 83.7773 138.645 83.4766 138.945C83.1849 139.237 82.8294 139.383 82.4102 139.383C81.9909 139.383 81.6309 139.237 81.3301 138.945C81.0384 138.645 80.8926 138.285 80.8926 137.865C80.8926 137.437 81.0384 137.077 81.3301 136.785C81.6309 136.493 81.9909 136.348 82.4102 136.348Z" fill="white"/>
</svg>
