<svg width="307" height="166" viewBox="0 0 307 166" fill="none" xmlns="http://www.w3.org/2000/svg">
<rect width="307" height="166" fill="#941F1F"/>
<path d="M67.0684 33.084C66.7871 33.4355 66.5146 33.7783 66.251 34.1123C66.0049 34.4287 65.7588 34.7627 65.5127 35.1143C67.2881 35.7646 68.7207 36.5732 69.8105 37.54C70.9004 38.4893 71.7441 39.4912 72.3418 40.5459C72.9395 41.583 73.335 42.6113 73.5283 43.6309C73.7393 44.6328 73.8447 45.5029 73.8447 46.2412C73.8447 47.2783 73.6689 48.2715 73.3174 49.2207C72.9834 50.1523 72.5264 51.0049 71.9463 51.7783C71.3838 52.5518 70.7246 53.2285 69.9688 53.8086C69.2129 54.3711 68.4219 54.8018 67.5957 55.1006C69.3008 56.5068 70.5664 58.0713 71.3926 59.7939C72.2363 61.5166 72.6582 63.2568 72.6582 65.0146C72.6582 66.4912 72.3506 67.8887 71.7354 69.207C71.1377 70.5254 70.3203 71.6768 69.2832 72.6611C68.2461 73.6455 67.0156 74.4277 65.5918 75.0078C64.1855 75.5879 62.6826 75.8779 61.083 75.8779C59.6943 75.8779 58.4111 75.6494 57.2334 75.1924C56.0732 74.7529 55.0273 74.1465 54.0957 73.373C53.1816 72.5996 52.3818 71.6855 51.6963 70.6309C51.0283 69.5762 50.501 68.4512 50.1143 67.2559L51.4326 66.8604C52.083 68.9697 53.1553 70.5957 54.6494 71.7383C56.1436 72.8984 57.9453 73.4785 60.0547 73.4785C61.3555 73.4785 62.5947 73.2324 63.7725 72.7402C64.9678 72.2656 66.0137 71.6152 66.9102 70.7891C67.8066 69.9453 68.5186 68.9609 69.0459 67.8359C69.5732 66.6934 69.8369 65.4629 69.8369 64.1445C69.8369 63.248 69.7139 62.3955 69.4678 61.5869C69.2217 60.7783 68.8965 60.0137 68.4922 59.293C68.0879 58.5723 67.6309 57.9131 67.1211 57.3154C66.6289 56.7002 66.1191 56.1553 65.5918 55.6807C65.1172 55.7686 64.6426 55.8389 64.168 55.8916C63.6934 55.9443 63.2275 55.9707 62.7705 55.9707C62.1377 55.9707 61.4873 55.9268 60.8193 55.8389C60.1689 55.7334 59.5713 55.584 59.0264 55.3906C58.499 55.1973 58.0596 54.9424 57.708 54.626C57.374 54.3096 57.207 53.9229 57.207 53.4658C57.207 53.3604 57.2334 53.2109 57.2861 53.0176C57.3389 52.8066 57.4443 52.6045 57.6025 52.4111C57.7783 52.2178 58.0332 52.0508 58.3672 51.9102C58.7012 51.752 59.1582 51.6729 59.7383 51.6729C60.2832 51.6729 60.8281 51.7344 61.373 51.8574C61.9355 51.9805 62.4717 52.1475 62.9814 52.3584C63.4912 52.5518 63.9834 52.7803 64.458 53.0439C64.9326 53.29 65.3633 53.5449 65.75 53.8086C66.3828 53.5273 67.0156 53.1494 67.6484 52.6748C68.2988 52.1826 68.8877 51.585 69.415 50.8818C69.9424 50.1787 70.373 49.3701 70.707 48.4561C71.041 47.542 71.208 46.5137 71.208 45.3711C71.208 43.3672 70.6543 41.5654 69.5469 39.9658C68.4395 38.3662 66.7959 37.1445 64.6162 36.3008C63.5615 37.7773 62.5771 39.2451 61.6631 40.7041C60.749 42.1631 59.8965 43.6221 59.1055 45.0811C58.3145 46.54 57.5674 47.999 56.8643 49.458C56.1787 50.917 55.5195 52.3936 54.8867 53.8877C53.4277 57.2979 52.0039 60.2158 50.6152 62.6416C49.2266 65.0498 47.7412 67.0186 46.1592 68.5479C44.5947 70.0771 42.8809 71.1934 41.0176 71.8965C39.1719 72.6172 37.0537 72.9775 34.6631 72.9775C32.8174 72.9775 31.2266 72.6699 29.8906 72.0547C28.5547 71.457 27.4561 70.6309 26.5947 69.5762C25.7334 68.5215 25.0918 67.2998 24.6699 65.9111C24.2656 64.5049 24.0635 63.0107 24.0635 61.4287C24.0635 59.6709 24.3447 57.8604 24.9072 55.9971C25.4697 54.1162 26.3047 52.2441 27.4121 50.3809C28.1152 49.2031 28.9854 47.9814 30.0225 46.7158C31.0596 45.4326 32.2461 44.1758 33.582 42.9453C34.918 41.6973 36.4033 40.5195 38.0381 39.4121C39.6904 38.2871 41.4658 37.3115 43.3643 36.4854C45.2803 35.6416 47.3193 34.9736 49.4814 34.4814C51.6611 33.9717 53.9551 33.7168 56.3633 33.7168C57.8398 33.7168 59.1846 33.7959 60.3975 33.9541C61.6279 34.0947 62.7617 34.3057 63.7988 34.5869C64.2031 34.1826 64.6074 33.7783 65.0117 33.374C65.4336 32.9697 65.8643 32.5654 66.3037 32.1611L67.0684 33.084ZM56.5742 44.0264C57.5059 42.4795 58.4727 41.0293 59.4746 39.6758C60.4941 38.3047 61.584 36.9863 62.7441 35.7207C62.0762 35.5625 61.3643 35.4395 60.6084 35.3516C59.8701 35.2637 59.0879 35.2197 58.2617 35.2197C55.6074 35.2197 52.9883 35.5889 50.4043 36.3271C47.8379 37.0479 45.3857 38.0586 43.0479 39.3594C40.7275 40.6602 38.5742 42.207 36.5879 44C34.6016 45.793 32.8789 47.7441 31.4199 49.8535C29.9785 51.9453 28.8447 54.1602 28.0186 56.498C27.21 58.8359 26.8057 61.209 26.8057 63.6172C26.8057 64.8125 26.9639 65.9023 27.2803 66.8867C27.6143 67.8535 28.1064 68.6885 28.7568 69.3916C29.4072 70.0771 30.207 70.6133 31.1562 71C32.123 71.3691 33.2305 71.5537 34.4785 71.5537C36.5703 71.5537 38.3984 71.167 39.9629 70.3936C41.5273 69.6025 42.916 68.5303 44.1289 67.1768C45.3594 65.8232 46.4668 64.25 47.4512 62.457C48.4355 60.6465 49.3936 58.7217 50.3252 56.6826C51.2744 54.6436 52.2412 52.543 53.2256 50.3809C54.21 48.2188 55.3262 46.1006 56.5742 44.0264ZM63.957 54.3359C63.6934 54.1426 63.377 53.9668 63.0078 53.8086C62.6562 53.6328 62.2871 53.4922 61.9004 53.3867C61.5137 53.2637 61.127 53.167 60.7402 53.0967C60.3535 53.0264 60.0195 52.9912 59.7383 52.9912C59.2461 52.9912 58.9297 53.0527 58.7891 53.1758C58.666 53.2812 58.6045 53.3779 58.6045 53.4658C58.6045 53.624 58.7188 53.7646 58.9473 53.8877C59.1934 54.0107 59.4922 54.125 59.8438 54.2305C60.2129 54.3184 60.6172 54.3887 61.0566 54.4414C61.4961 54.4941 61.9268 54.5205 62.3486 54.5205C62.542 54.5205 62.7617 54.5117 63.0078 54.4941C63.2539 54.4766 63.5703 54.4238 63.957 54.3359ZM93.1191 61.9033C92.8555 62.29 92.5391 62.8174 92.1699 63.4854C91.8184 64.1357 91.4053 64.8477 90.9307 65.6211C90.4561 66.377 89.9287 67.1504 89.3486 67.9414C88.7861 68.7324 88.1621 69.4443 87.4766 70.0771C86.8086 70.71 86.0791 71.2285 85.2881 71.6328C84.4971 72.0371 83.6533 72.2393 82.7568 72.2393C82.2646 72.2393 81.7988 72.1602 81.3594 72.002C80.9199 71.8613 80.5332 71.6328 80.1992 71.3164C79.8652 71 79.6016 70.6133 79.4082 70.1562C79.2148 69.6816 79.1182 69.1279 79.1182 68.4951C79.1182 67.6338 79.2852 66.7373 79.6191 65.8057C79.9707 64.8564 80.375 63.9424 80.832 63.0635C81.2891 62.1846 81.7461 61.3848 82.2031 60.6641C82.6602 59.9258 82.9941 59.3369 83.2051 58.8975C83.416 58.458 83.5215 58.0801 83.5215 57.7637C83.5215 57.5352 83.4424 57.333 83.2842 57.1572C83.1436 56.9814 82.959 56.8145 82.7305 56.6562C82.5195 56.4805 82.291 56.3047 82.0449 56.1289C81.8164 55.9355 81.623 55.707 81.4648 55.4434C81.0254 56.1465 80.5771 56.8584 80.1201 57.5791C79.7158 58.1943 79.2764 58.8887 78.8018 59.6621C78.3271 60.418 77.8701 61.165 77.4307 61.9033L76.4814 61.165L82.124 52.332L82.8887 52.7275C82.8535 52.833 82.792 53 82.7041 53.2285C82.6338 53.457 82.5986 53.7031 82.5986 53.9668C82.5986 54.1602 82.625 54.3535 82.6777 54.5469C82.748 54.7227 82.8799 54.8896 83.0732 55.0479C83.7764 55.6807 84.3301 56.1729 84.7344 56.5244C85.1387 56.8584 85.4287 57.1309 85.6045 57.3418C85.7979 57.5352 85.9121 57.7021 85.9473 57.8428C86 57.9658 86.0264 58.1328 86.0264 58.3438C86.0264 58.5547 85.9912 58.8096 85.9209 59.1084C85.8506 59.4072 85.7275 59.7676 85.5518 60.1895C85.3936 60.6113 85.165 61.1123 84.8662 61.6924C84.585 62.2549 84.2246 62.9141 83.7852 63.6699C83.5215 64.127 83.2578 64.5928 82.9941 65.0674C82.748 65.5244 82.5195 65.9902 82.3086 66.4648C82.1152 66.9395 81.957 67.4141 81.834 67.8887C81.7109 68.3633 81.6494 68.8203 81.6494 69.2598C81.6494 69.5938 81.6934 69.8662 81.7812 70.0771C81.8867 70.2705 82.0186 70.4199 82.1768 70.5254C82.335 70.6309 82.502 70.7012 82.6777 70.7363C82.8711 70.7715 83.0557 70.7891 83.2314 70.7891C83.8115 70.7891 84.3828 70.6221 84.9453 70.2881C85.5254 69.9365 86.0879 69.4883 86.6328 68.9434C87.1953 68.3984 87.7314 67.7832 88.2412 67.0977C88.7686 66.3945 89.2695 65.6826 89.7441 64.9619C90.2188 64.2412 90.6582 63.5557 91.0625 62.9053C91.4668 62.2373 91.8271 61.6572 92.1436 61.165L93.1191 61.9033ZM103.982 47.6123C103.982 47.9639 103.895 48.333 103.719 48.7197C103.543 49.0889 103.314 49.4229 103.033 49.7217C102.77 50.0205 102.471 50.2666 102.137 50.46C101.803 50.6533 101.469 50.75 101.135 50.75C100.836 50.75 100.607 50.6445 100.449 50.4336C100.291 50.2051 100.212 49.9326 100.212 49.6162C100.212 49.335 100.265 49.001 100.37 48.6143C100.476 48.2275 100.634 47.8672 100.845 47.5332C101.056 47.1816 101.311 46.8828 101.609 46.6367C101.908 46.3906 102.251 46.2676 102.638 46.2676C103.007 46.2676 103.323 46.4082 103.587 46.6895C103.851 46.9707 103.982 47.2783 103.982 47.6123ZM99.0518 53.4658C98.8232 53.9229 98.498 54.5293 98.0762 55.2852C97.6719 56.0234 97.2324 56.8408 96.7578 57.7373C96.2832 58.6162 95.7998 59.5479 95.3076 60.5322C94.8154 61.499 94.3672 62.4482 93.9629 63.3799C93.5762 64.2939 93.2598 65.1553 93.0137 65.9639C92.7676 66.7725 92.6445 67.458 92.6445 68.0205C92.6445 68.5303 92.75 68.8818 92.9609 69.0752C93.1719 69.251 93.4707 69.3389 93.8574 69.3389C94.5781 69.3389 95.2812 69.1016 95.9668 68.627C96.6523 68.1523 97.3291 67.5371 97.9971 66.7812C98.6826 66.0078 99.3506 65.1289 100.001 64.1445C100.651 63.1602 101.302 62.167 101.952 61.165L102.901 61.9033C102.392 62.8174 101.812 63.793 101.161 64.8301C100.528 65.8672 99.8164 66.834 99.0254 67.7305C98.2344 68.6094 97.3643 69.3389 96.415 69.9189C95.4658 70.499 94.4287 70.7891 93.3037 70.7891C92.249 70.7891 91.4404 70.4727 90.8779 69.8398C90.3154 69.207 90.0342 68.3896 90.0342 67.3877C90.0342 66.21 90.3066 64.9795 90.8516 63.6963C91.3965 62.4131 92.0732 61.1475 92.8818 59.8994C93.708 58.6338 94.5957 57.4209 95.5449 56.2607C96.5117 55.1006 97.3994 54.0459 98.208 53.0967L99.0518 53.4658ZM116.823 54.9951C116.929 54.7139 116.981 54.415 116.981 54.0986C116.981 53.5361 116.753 53.0967 116.296 52.7803C115.856 52.4463 115.153 52.2793 114.187 52.2793C113.396 52.2793 112.596 52.4551 111.787 52.8066C110.996 53.1406 110.231 53.6064 109.493 54.2041C108.755 54.8018 108.061 55.5137 107.41 56.3398C106.777 57.166 106.224 58.0625 105.749 59.0293C105.292 59.9961 104.923 61.0244 104.642 62.1143C104.378 63.1865 104.246 64.2676 104.246 65.3574C104.246 66.2363 104.343 66.9834 104.536 67.5986C104.729 68.2139 105.002 68.7148 105.354 69.1016C105.705 69.4883 106.127 69.7695 106.619 69.9453C107.111 70.1035 107.665 70.1826 108.28 70.1826C109.493 70.1826 110.671 69.9102 111.813 69.3652C112.956 68.8203 114.037 68.1172 115.057 67.2559C116.094 66.377 117.043 65.4014 117.904 64.3291C118.783 63.2568 119.557 62.2021 120.225 61.165L121.2 61.9033C120.251 63.5029 119.24 64.9092 118.168 66.1221C117.096 67.3174 115.997 68.3193 114.872 69.1279C113.747 69.9365 112.604 70.543 111.444 70.9473C110.284 71.3516 109.15 71.5537 108.043 71.5537C107.164 71.5537 106.32 71.4219 105.512 71.1582C104.721 70.8945 104.018 70.499 103.402 69.9717C102.805 69.4268 102.321 68.7324 101.952 67.8887C101.601 67.0449 101.425 66.043 101.425 64.8828C101.425 63.5117 101.618 62.2197 102.005 61.0068C102.409 59.7764 102.937 58.6426 103.587 57.6055C104.255 56.5684 105.02 55.6367 105.881 54.8105C106.742 53.9668 107.639 53.2549 108.57 52.6748C109.52 52.0947 110.469 51.6553 111.418 51.3564C112.385 51.04 113.29 50.8818 114.134 50.8818C114.995 50.8818 115.698 51.0049 116.243 51.251C116.788 51.4795 117.219 51.7607 117.535 52.0947C117.852 52.4287 118.062 52.7803 118.168 53.1494C118.291 53.5186 118.353 53.835 118.353 54.0986C118.353 54.5205 118.291 54.9688 118.168 55.4434C118.045 55.918 117.869 56.3574 117.641 56.7617C117.43 57.1484 117.157 57.4736 116.823 57.7373C116.507 58.001 116.155 58.1328 115.769 58.1328C115.382 58.1328 115.048 58.0098 114.767 57.7637C114.485 57.5 114.345 57.1748 114.345 56.7881C114.345 56.7705 114.354 56.665 114.371 56.4717C114.406 56.2783 114.494 56.0762 114.635 55.8652C114.775 55.6367 114.986 55.4346 115.268 55.2588C115.566 55.083 115.979 54.9951 116.507 54.9951H116.823ZM123.415 61.7451C124.329 60.4795 125.296 59.2666 126.315 58.1064C127.353 56.9287 128.398 55.8916 129.453 54.9951C130.508 54.0811 131.571 53.3516 132.644 52.8066C133.716 52.2617 134.762 51.9893 135.781 51.9893C136.414 51.9893 136.933 52.0859 137.337 52.2793C137.741 52.4727 138.058 52.7188 138.286 53.0176C138.532 53.3164 138.699 53.6592 138.787 54.0459C138.893 54.415 138.945 54.7842 138.945 55.1533C138.945 55.6807 138.84 56.252 138.629 56.8672C138.436 57.4824 138.128 58.1064 137.706 58.7393C137.302 59.3545 136.783 59.9521 136.15 60.5322C135.518 61.0947 134.762 61.6045 133.883 62.0615C134.076 62.5186 134.173 63.0723 134.173 63.7227C134.173 64.127 134.12 64.54 134.015 64.9619C133.909 65.3662 133.795 65.7705 133.672 66.1748C133.549 66.5791 133.435 66.9922 133.329 67.4141C133.224 67.8184 133.171 68.2314 133.171 68.6533C133.171 68.8643 133.18 69.0664 133.197 69.2598C133.232 69.4531 133.285 69.6289 133.355 69.7871C133.443 69.9453 133.566 70.0771 133.725 70.1826C133.9 70.2705 134.138 70.3145 134.437 70.3145C134.788 70.3145 135.192 70.1738 135.649 69.8926C136.106 69.5938 136.59 69.207 137.1 68.7324C137.609 68.2578 138.128 67.7129 138.655 67.0977C139.2 66.4648 139.728 65.8057 140.237 65.1201C140.747 64.4346 141.239 63.7578 141.714 63.0898C142.188 62.4043 142.619 61.7627 143.006 61.165L143.981 61.9033C143.085 63.2393 142.206 64.5137 141.345 65.7266C140.501 66.9395 139.648 68.0029 138.787 68.917C137.943 69.8311 137.082 70.5605 136.203 71.1055C135.324 71.6504 134.419 71.9229 133.487 71.9229C133.118 71.9229 132.731 71.8701 132.327 71.7646C131.94 71.6592 131.58 71.4834 131.246 71.2373C130.93 71.0088 130.666 70.7012 130.455 70.3145C130.244 69.9277 130.139 69.4531 130.139 68.8906C130.139 68.2227 130.306 67.4404 130.64 66.5439C130.938 65.7002 131.158 64.9971 131.299 64.4346C131.439 63.8545 131.519 63.3711 131.536 62.9844C131.167 63.0723 130.771 63.1514 130.35 63.2217C129.945 63.292 129.559 63.3271 129.189 63.3271C128.996 63.3271 128.785 63.3096 128.557 63.2744C128.328 63.2217 128.117 63.1426 127.924 63.0371C127.73 62.9316 127.563 62.7998 127.423 62.6416C127.3 62.4658 127.238 62.2461 127.238 61.9824C127.238 61.7188 127.317 61.4727 127.476 61.2441C127.651 60.998 127.88 60.7871 128.161 60.6113C128.46 60.418 128.812 60.2686 129.216 60.1631C129.62 60.0576 130.068 60.0049 130.561 60.0049C131.475 60.0049 132.257 60.251 132.907 60.7432C133.54 60.251 134.059 59.7148 134.463 59.1348C134.885 58.5547 135.21 57.9922 135.438 57.4473C135.667 56.9023 135.825 56.4189 135.913 55.9971C136.001 55.5576 136.045 55.2324 136.045 55.0215C136.045 54.4414 135.939 54.0459 135.729 53.835C135.518 53.6064 135.263 53.4922 134.964 53.4922C134.401 53.4922 133.769 53.6768 133.065 54.0459C132.38 54.415 131.659 54.916 130.903 55.5488C130.165 56.1816 129.4 56.9111 128.609 57.7373C127.836 58.5635 127.071 59.4336 126.315 60.3477C125.577 61.2617 124.856 62.1846 124.153 63.1162C123.468 64.0479 122.835 64.9268 122.255 65.7529C121.728 66.6318 121.253 67.4492 120.831 68.2051C120.427 68.9609 120.084 69.6113 119.803 70.1562C119.521 70.7012 119.302 71.1143 119.144 71.3955C118.985 71.6768 118.897 71.7734 118.88 71.6855L116.27 71C118.344 66.2715 120.444 61.543 122.571 56.8145C124.698 52.0859 126.939 47.3047 129.295 42.4707C129.646 41.7676 130.042 41.0029 130.481 40.1768C130.938 39.333 131.422 38.498 131.932 37.6719C132.459 36.8281 133.013 36.0107 133.593 35.2197C134.19 34.4287 134.797 33.7344 135.412 33.1367C136.045 32.5215 136.687 32.0381 137.337 31.6865C137.987 31.3174 138.638 31.1328 139.288 31.1328C139.974 31.1328 140.527 31.3262 140.949 31.7129C141.389 32.0996 141.608 32.7148 141.608 33.5586C141.608 34.7188 141.292 36.1338 140.659 37.8037C140.044 39.4561 139.121 41.2139 137.891 43.0771C136.66 44.9404 135.122 46.8301 133.276 48.7461C131.448 50.6445 129.312 52.4111 126.869 54.0459L123.415 61.7451ZM128.029 51.5146C130.156 49.8623 131.984 48.166 133.514 46.4258C135.061 44.668 136.326 42.9805 137.311 41.3633C138.312 39.7461 139.042 38.252 139.499 36.8809C139.974 35.4922 140.211 34.332 140.211 33.4004C140.211 33.1367 140.141 32.9258 140 32.7676C139.859 32.6094 139.64 32.5303 139.341 32.5303C138.69 32.5303 138.022 32.8555 137.337 33.5059C136.651 34.1387 135.869 35.1934 134.99 36.6699C134.129 38.1465 133.136 40.0977 132.011 42.5234C130.886 44.9492 129.559 47.9463 128.029 51.5146ZM131.404 61.7979C131.316 61.6045 131.167 61.4375 130.956 61.2969C130.763 61.1387 130.543 61.0596 130.297 61.0596C129.787 61.0596 129.339 61.165 128.952 61.376C128.565 61.5869 128.372 61.7891 128.372 61.9824C128.372 62.123 128.451 62.2197 128.609 62.2725C128.785 62.3076 128.943 62.3252 129.084 62.3252C129.541 62.3252 129.963 62.2725 130.35 62.167C130.736 62.0615 131.088 61.9385 131.404 61.7979ZM188.727 74.4014C187.584 74.4014 186.424 74.2959 185.246 74.085C184.086 73.8916 182.908 73.6279 181.713 73.2939C180.518 72.9775 179.322 72.626 178.127 72.2393C176.932 71.8525 175.754 71.4746 174.594 71.1055C173.205 71.9492 171.755 72.6084 170.243 73.083C168.731 73.5752 167.141 73.8213 165.471 73.8213C164.047 73.8213 162.957 73.5664 162.201 73.0566C161.445 72.5469 161.067 71.8701 161.067 71.0264C161.067 69.9189 161.683 69.0664 162.913 68.4688C164.144 67.8711 166.007 67.5723 168.503 67.5723C169.593 67.5723 170.691 67.6514 171.799 67.8096C172.906 67.9678 174.031 68.1699 175.174 68.416C176.281 67.4492 177.336 66.3594 178.338 65.1465C179.34 63.9336 180.315 62.6328 181.265 61.2441C180.544 61.332 179.814 61.4023 179.076 61.4551C178.338 61.4902 177.591 61.5078 176.835 61.5078C174.075 61.5078 171.614 61.1826 169.452 60.5322C167.29 59.8643 165.462 58.959 163.968 57.8164C162.474 56.6562 161.331 55.3027 160.54 53.7559C159.767 52.1914 159.38 50.5127 159.38 48.7197C159.38 46.6104 159.784 44.7383 160.593 43.1035C161.401 41.4688 162.509 40.0977 163.915 38.9902C165.339 37.8652 167.009 37.0127 168.925 36.4326C170.841 35.835 172.897 35.5361 175.095 35.5361C176.483 35.5361 177.749 35.6416 178.892 35.8525C180.034 36.0635 181.019 36.292 181.845 36.5381C182.688 36.7842 183.348 37.0215 183.822 37.25C184.297 37.4785 184.561 37.6016 184.613 37.6191L183.928 38.8057C183.91 38.8057 183.69 38.709 183.269 38.5156C182.847 38.3047 182.267 38.085 181.528 37.8564C180.79 37.6279 179.911 37.417 178.892 37.2236C177.872 37.0303 176.773 36.9336 175.596 36.9336C173.521 36.9336 171.658 37.2412 170.006 37.8564C168.371 38.4541 166.982 39.2803 165.84 40.335C164.715 41.3896 163.845 42.6289 163.229 44.0527C162.632 45.459 162.333 46.9619 162.333 48.5615C162.333 50.3545 162.746 51.9629 163.572 53.3867C164.398 54.793 165.506 55.9883 166.895 56.9727C168.283 57.9395 169.892 58.6777 171.72 59.1875C173.565 59.6973 175.499 59.9521 177.521 59.9521C178.347 59.9521 179.155 59.9258 179.946 59.873C180.755 59.8203 181.555 59.7324 182.346 59.6094C183.594 57.6582 184.798 55.6367 185.958 53.5449C187.136 51.4531 188.305 49.4053 189.465 47.4014C190.625 45.3975 191.794 43.499 192.972 41.7061C194.149 39.8955 195.371 38.3135 196.637 36.96C197.92 35.6064 199.265 34.5342 200.671 33.7432C202.077 32.9346 203.589 32.5303 205.206 32.5303C205.839 32.5303 206.428 32.6357 206.973 32.8467C207.518 33.04 207.992 33.3477 208.396 33.7695C208.801 34.1738 209.117 34.6924 209.346 35.3252C209.574 35.958 209.688 36.6963 209.688 37.54C209.688 38.9111 209.425 40.3613 208.897 41.8906C208.37 43.4023 207.605 44.9229 206.604 46.4521C205.602 47.9639 204.38 49.458 202.938 50.9346C201.497 52.3936 199.862 53.7471 198.034 54.9951C196.206 56.2432 194.202 57.3594 192.022 58.3438C189.843 59.3105 187.522 60.0664 185.062 60.6113C183.901 62.2109 182.706 63.7227 181.476 65.1465C180.245 66.5527 178.944 67.8271 177.573 68.9697C178.909 69.3213 180.219 69.6992 181.502 70.1035C182.785 70.4902 183.998 70.8418 185.141 71.1582C186.301 71.4922 187.373 71.7646 188.357 71.9756C189.342 72.2041 190.212 72.3184 190.968 72.3184C192.093 72.3184 193.174 72.125 194.211 71.7383C195.266 71.3516 196.312 70.666 197.349 69.6816L198.43 70.5254C198.412 70.543 198.315 70.6572 198.14 70.8682C197.964 71.0615 197.7 71.2988 197.349 71.5801C196.997 71.8789 196.558 72.1865 196.03 72.5029C195.503 72.8369 194.879 73.1445 194.158 73.4258C193.455 73.707 192.646 73.9355 191.732 74.1113C190.836 74.3047 189.834 74.4014 188.727 74.4014ZM205.312 33.9805C204.327 33.9805 203.352 34.332 202.385 35.0352C201.418 35.7383 200.442 36.6963 199.458 37.9092C198.474 39.1045 197.472 40.5195 196.452 42.1543C195.45 43.7715 194.413 45.5029 193.341 47.3486C192.269 49.1768 191.152 51.0664 189.992 53.0176C188.832 54.9688 187.619 56.8848 186.354 58.7656C188.463 58.1855 190.467 57.4297 192.365 56.498C194.281 55.5664 196.048 54.5205 197.665 53.3604C199.3 52.2002 200.768 50.9609 202.068 49.6426C203.387 48.3066 204.503 46.9443 205.417 45.5557C206.349 44.167 207.061 42.7959 207.553 41.4424C208.045 40.0713 208.291 38.7617 208.291 37.5137C208.291 36.8633 208.212 36.3184 208.054 35.8789C207.896 35.4219 207.676 35.0527 207.395 34.7715C207.131 34.4902 206.814 34.2881 206.445 34.165C206.094 34.042 205.716 33.9805 205.312 33.9805ZM165.312 72.4502C166.613 72.4502 167.844 72.2656 169.004 71.8965C170.164 71.5449 171.289 71.0527 172.379 70.4199C171.219 70.0859 170.094 69.8135 169.004 69.6025C167.932 69.3916 166.895 69.2861 165.893 69.2861C164.697 69.2861 163.818 69.4619 163.256 69.8135C162.711 70.165 162.438 70.5693 162.438 71.0264C162.438 71.167 162.474 71.3164 162.544 71.4746C162.632 71.6504 162.781 71.8086 162.992 71.9492C163.203 72.0898 163.493 72.2041 163.862 72.292C164.231 72.3975 164.715 72.4502 165.312 72.4502ZM223.004 53.4658C222.775 53.9229 222.45 54.5205 222.028 55.2588C221.624 55.9971 221.185 56.8145 220.71 57.7109C220.235 58.5898 219.752 59.5127 219.26 60.4795C218.785 61.4463 218.346 62.3955 217.941 63.3271C217.555 64.2412 217.229 65.1113 216.966 65.9375C216.72 66.7461 216.597 67.4316 216.597 67.9941C216.597 68.5566 216.702 68.9258 216.913 69.1016C217.142 69.2598 217.432 69.3389 217.783 69.3389C218.293 69.3389 218.812 69.1895 219.339 68.8906C219.884 68.5918 220.411 68.2051 220.921 67.7305C221.448 67.2559 221.958 66.7197 222.45 66.1221C222.942 65.5244 223.399 64.9268 223.821 64.3291C224.261 63.7139 224.656 63.1338 225.008 62.5889C225.359 62.0264 225.658 61.5518 225.904 61.165L226.854 61.9033C226.555 62.4658 226.203 63.0723 225.799 63.7227C225.395 64.373 224.946 65.0322 224.454 65.7002C223.979 66.3506 223.461 66.9834 222.898 67.5986C222.336 68.2139 221.738 68.7588 221.105 69.2334C220.49 69.708 219.84 70.0859 219.154 70.3672C218.469 70.6484 217.766 70.7891 217.045 70.7891C215.99 70.7891 215.217 70.4727 214.725 69.8398C214.232 69.207 213.986 68.3896 213.986 67.3877C213.986 67.3174 213.986 67.168 213.986 66.9395C214.004 66.6934 214.03 66.5 214.065 66.3594C213.187 67.4668 212.343 68.3809 211.534 69.1016C210.743 69.8223 209.97 70.3936 209.214 70.8154C208.476 71.2373 207.755 71.5273 207.052 71.6855C206.366 71.8613 205.707 71.9492 205.074 71.9492C204.406 71.9492 203.773 71.835 203.176 71.6064C202.596 71.3955 202.086 71.0791 201.646 70.6572C201.189 70.2354 200.838 69.7168 200.592 69.1016C200.328 68.4863 200.196 67.7744 200.196 66.9658C200.196 65.9639 200.425 64.8213 200.882 63.5381C201.321 62.2373 202.112 60.8398 203.255 59.3457C204.222 58.0625 205.224 56.9814 206.261 56.1025C207.315 55.2236 208.344 54.5205 209.346 53.9932C210.365 53.4482 211.332 53.0615 212.246 52.833C213.16 52.6045 213.978 52.4902 214.698 52.4902C216.315 52.4902 217.537 52.7627 218.363 53.3076C219.189 53.835 219.69 54.6523 219.866 55.7598C220.218 55.3203 220.587 54.8809 220.974 54.4414C221.36 54.002 221.756 53.5537 222.16 53.0967L223.004 53.4658ZM214.909 63.4854C215.138 63.1162 215.419 62.6504 215.753 62.0879C216.087 61.5078 216.438 60.9189 216.808 60.3213C217.177 59.7061 217.537 59.1172 217.889 58.5547C218.24 57.9922 218.548 57.5176 218.812 57.1309C218.812 56.9727 218.785 56.7178 218.732 56.3662C218.697 56.0146 218.583 55.6631 218.39 55.3115C218.196 54.9424 217.889 54.626 217.467 54.3623C217.045 54.0986 216.456 53.9668 215.7 53.9668C215.155 53.9668 214.54 54.0547 213.854 54.2305C213.187 54.3887 212.466 54.6699 211.692 55.0742C210.937 55.4609 210.154 55.9795 209.346 56.6299C208.537 57.2803 207.729 58.0889 206.92 59.0557C205.707 60.5146 204.767 61.9824 204.099 63.459C203.448 64.918 203.123 66.2363 203.123 67.4141C203.123 68.416 203.352 69.1895 203.809 69.7344C204.266 70.2793 204.916 70.5518 205.76 70.5518C206.727 70.5518 207.632 70.3408 208.476 69.9189C209.319 69.4795 210.11 68.917 210.849 68.2314C211.587 67.5459 212.29 66.79 212.958 65.9639C213.626 65.1201 214.276 64.2939 214.909 63.4854ZM237.611 65.1201C236.926 65.876 236.231 66.5791 235.528 67.2295C234.825 67.8623 234.131 68.416 233.445 68.8906C232.76 69.3652 232.083 69.7432 231.415 70.0244C230.765 70.2881 230.132 70.4199 229.517 70.4199C228.831 70.4199 228.207 70.2969 227.645 70.0508C227.1 69.7871 226.625 69.418 226.221 68.9434C225.834 68.4688 225.535 67.9062 225.324 67.2559C225.113 66.6055 225.008 65.8848 225.008 65.0938C225.008 64.0391 225.228 62.9404 225.667 61.7979C226.106 60.6553 226.669 59.5479 227.354 58.4756C228.058 57.3857 228.831 56.3574 229.675 55.3906C230.536 54.4238 231.371 53.5889 232.18 52.8857L233.313 53.6768C233.103 53.9756 232.812 54.3887 232.443 54.916C232.074 55.4434 231.679 56.0586 231.257 56.7617C230.835 57.4473 230.404 58.1943 229.965 59.0029C229.543 59.8115 229.156 60.6377 228.805 61.4814C228.453 62.3252 228.163 63.1689 227.935 64.0127C227.724 64.8564 227.618 65.6475 227.618 66.3857C227.618 66.7373 227.645 67.0801 227.697 67.4141C227.768 67.7305 227.873 68.0117 228.014 68.2578C228.172 68.5039 228.374 68.6973 228.62 68.8379C228.866 68.9785 229.183 69.0488 229.569 69.0488C230.185 69.0488 230.853 68.8643 231.573 68.4951C232.312 68.1084 233.067 67.5898 233.841 66.9395C234.632 66.2715 235.432 65.498 236.24 64.6191C237.066 63.7402 237.875 62.7998 238.666 61.7979C239.457 60.7959 240.222 59.7676 240.96 58.7129C241.698 57.6406 242.384 56.5859 243.017 55.5488C243.579 54.6172 244.142 53.6855 244.704 52.7539C245.267 51.8047 245.829 50.8818 246.392 49.9854L247.631 50.6182C247.613 50.6533 247.446 50.9873 247.13 51.6201C246.831 52.2354 246.427 53.0791 245.917 54.1514C245.407 55.2061 244.81 56.4365 244.124 57.8428C243.456 59.2314 242.744 60.7168 241.988 62.2988C241.232 63.8633 240.459 65.4717 239.668 67.124C238.895 68.7764 238.139 70.3848 237.4 71.9492C239.879 70.5781 242.12 68.9521 244.124 67.0713C246.146 65.1904 247.877 63.2217 249.318 61.165L250.294 61.9033C248.765 64.2412 246.866 66.4033 244.599 68.3896C242.331 70.3584 239.598 72.248 236.398 74.0586C234.939 77.1875 233.507 80.0439 232.101 82.6279C230.712 85.2119 229.314 87.4268 227.908 89.2725C226.52 91.1182 225.131 92.542 223.742 93.5439C222.336 94.5635 220.912 95.0732 219.471 95.0732C218.521 95.0732 217.73 94.7568 217.098 94.124C216.465 93.4912 216.148 92.5859 216.148 91.4082C216.148 90.4238 216.368 89.4131 216.808 88.376C217.247 87.3389 217.854 86.293 218.627 85.2383C219.4 84.2012 220.323 83.1641 221.396 82.127C222.45 81.1074 223.61 80.123 224.876 79.1738C226.124 78.2246 227.434 77.3193 228.805 76.458C230.193 75.5967 231.6 74.8057 233.023 74.085C233.393 73.3115 233.788 72.4941 234.21 71.6328C234.632 70.7891 235.045 69.9717 235.449 69.1807C235.854 68.3721 236.24 67.6162 236.609 66.9131C236.996 66.1924 237.33 65.5947 237.611 65.1201ZM231.811 76.6426C229.789 77.8906 227.908 79.2178 226.168 80.624C224.445 82.0479 222.951 83.4453 221.686 84.8164C220.402 86.2051 219.4 87.5059 218.68 88.7188C217.959 89.9316 217.599 90.96 217.599 91.8037C217.599 92.3662 217.766 92.8145 218.1 93.1484C218.416 93.4824 218.829 93.6494 219.339 93.6494C220.024 93.6494 220.736 93.4121 221.475 92.9375C222.195 92.4805 222.925 91.8477 223.663 91.0391C224.384 90.2305 225.104 89.2725 225.825 88.165C226.546 87.0752 227.249 85.8975 227.935 84.6318C228.638 83.3838 229.314 82.0742 229.965 80.7031C230.615 79.3496 231.23 77.9961 231.811 76.6426ZM251.349 64.9883C251.313 65.1992 251.287 65.4102 251.27 65.6211C251.252 65.832 251.243 66.043 251.243 66.2539C251.243 66.8867 251.331 67.4932 251.507 68.0732C251.7 68.6357 251.973 69.1367 252.324 69.5762C252.693 69.998 253.142 70.332 253.669 70.5781C254.214 70.8242 254.829 70.9473 255.515 70.9473C257.817 70.9473 260.041 70.165 262.186 68.6006C264.33 67.0361 266.466 64.5576 268.593 61.165L269.489 61.9561C268.329 63.8896 267.151 65.5244 265.956 66.8604C264.761 68.1787 263.565 69.251 262.37 70.0771C261.192 70.9033 260.032 71.501 258.89 71.8701C257.747 72.2393 256.657 72.4238 255.62 72.4238C254.864 72.4238 254.064 72.3184 253.221 72.1074C252.377 71.8965 251.595 71.5449 250.874 71.0527C250.171 70.5605 249.591 69.9014 249.134 69.0752C248.659 68.249 248.422 67.2207 248.422 65.9902C248.422 64.6719 248.65 63.4062 249.107 62.1934C249.547 60.9629 250.127 59.8203 250.848 58.7656C251.568 57.7109 252.395 56.7529 253.326 55.8916C254.258 55.0127 255.198 54.2656 256.147 53.6504C257.114 53.0352 258.055 52.5605 258.969 52.2266C259.883 51.875 260.691 51.6992 261.395 51.6992C261.852 51.6992 262.317 51.7695 262.792 51.9102C263.267 52.0508 263.688 52.2705 264.058 52.5693C264.444 52.8682 264.752 53.2637 264.98 53.7559C265.227 54.248 265.35 54.8369 265.35 55.5225C265.35 56.4541 265.13 57.333 264.69 58.1592C264.269 58.9678 263.697 59.7236 262.977 60.4268C262.256 61.1123 261.421 61.7363 260.472 62.2988C259.522 62.8438 258.529 63.3096 257.492 63.6963C256.455 64.083 255.409 64.3906 254.354 64.6191C253.3 64.8477 252.298 64.9707 251.349 64.9883ZM251.56 63.8545C252.737 63.7314 253.845 63.4854 254.882 63.1162C255.919 62.7471 256.868 62.2988 257.729 61.7715C258.591 61.2266 259.355 60.6377 260.023 60.0049C260.709 59.3721 261.28 58.7305 261.737 58.0801C262.194 57.4297 262.546 56.8057 262.792 56.208C263.038 55.6104 263.161 55.0742 263.161 54.5996C263.161 54.125 263.029 53.7471 262.766 53.4658C262.52 53.1846 262.221 53.0439 261.869 53.0439C261.096 53.0439 260.226 53.3252 259.259 53.8877C258.292 54.4326 257.325 55.1973 256.358 56.1816C255.392 57.1484 254.478 58.291 253.616 59.6094C252.772 60.9277 252.087 62.3428 251.56 63.8545ZM285.23 61.9033C284.967 62.29 284.65 62.8174 284.281 63.4854C283.93 64.1357 283.517 64.8477 283.042 65.6211C282.567 66.377 282.04 67.1504 281.46 67.9414C280.897 68.7324 280.273 69.4443 279.588 70.0771C278.92 70.71 278.19 71.2285 277.399 71.6328C276.608 72.0371 275.765 72.2393 274.868 72.2393C274.376 72.2393 273.91 72.1602 273.471 72.002C273.031 71.8613 272.645 71.6328 272.311 71.3164C271.977 71 271.713 70.6133 271.52 70.1562C271.326 69.6816 271.229 69.1279 271.229 68.4951C271.229 67.6338 271.396 66.7373 271.73 65.8057C272.082 64.8564 272.486 63.9424 272.943 63.0635C273.4 62.1846 273.857 61.3848 274.314 60.6641C274.771 59.9258 275.105 59.3369 275.316 58.8975C275.527 58.458 275.633 58.0801 275.633 57.7637C275.633 57.5352 275.554 57.333 275.396 57.1572C275.255 56.9814 275.07 56.8145 274.842 56.6562C274.631 56.4805 274.402 56.3047 274.156 56.1289C273.928 55.9355 273.734 55.707 273.576 55.4434C273.137 56.1465 272.688 56.8584 272.231 57.5791C271.827 58.1943 271.388 58.8887 270.913 59.6621C270.438 60.418 269.981 61.165 269.542 61.9033L268.593 61.165L274.235 52.332L275 52.7275C274.965 52.833 274.903 53 274.815 53.2285C274.745 53.457 274.71 53.7031 274.71 53.9668C274.71 54.1602 274.736 54.3535 274.789 54.5469C274.859 54.7227 274.991 54.8896 275.185 55.0479C275.888 55.6807 276.441 56.1729 276.846 56.5244C277.25 56.8584 277.54 57.1309 277.716 57.3418C277.909 57.5352 278.023 57.7021 278.059 57.8428C278.111 57.9658 278.138 58.1328 278.138 58.3438C278.138 58.5547 278.103 58.8096 278.032 59.1084C277.962 59.4072 277.839 59.7676 277.663 60.1895C277.505 60.6113 277.276 61.1123 276.978 61.6924C276.696 62.2549 276.336 62.9141 275.896 63.6699C275.633 64.127 275.369 64.5928 275.105 65.0674C274.859 65.5244 274.631 65.9902 274.42 66.4648C274.227 66.9395 274.068 67.4141 273.945 67.8887C273.822 68.3633 273.761 68.8203 273.761 69.2598C273.761 69.5938 273.805 69.8662 273.893 70.0771C273.998 70.2705 274.13 70.4199 274.288 70.5254C274.446 70.6309 274.613 70.7012 274.789 70.7363C274.982 70.7715 275.167 70.7891 275.343 70.7891C275.923 70.7891 276.494 70.6221 277.057 70.2881C277.637 69.9365 278.199 69.4883 278.744 68.9434C279.307 68.3984 279.843 67.7832 280.353 67.0977C280.88 66.3945 281.381 65.6826 281.855 64.9619C282.33 64.2412 282.77 63.5557 283.174 62.9053C283.578 62.2373 283.938 61.6572 284.255 61.165L285.23 61.9033Z" fill="white"/>
<path d="M63.8936 102.833C63.9111 102.868 64.043 102.991 64.2891 103.202C64.5352 103.396 64.8779 103.615 65.3174 103.861C65.7744 104.107 66.3281 104.327 66.9785 104.521C67.6289 104.714 68.3672 104.811 69.1934 104.811C70.582 104.811 71.8916 104.547 73.1221 104.02C74.3525 103.492 75.4863 102.798 76.5234 101.937C77.5781 101.075 78.5186 100.091 79.3447 98.9834C80.1885 97.876 80.9004 96.7422 81.4805 95.582C82.0605 94.4219 82.5088 93.2793 82.8252 92.1543C83.1416 91.0293 83.2998 90.0186 83.2998 89.1221C83.2998 88.0498 83.1416 87.1182 82.8252 86.3271C82.5088 85.5361 82.0781 84.8857 81.5332 84.376C81.0059 83.8662 80.373 83.4883 79.6348 83.2422C78.9141 82.9961 78.1318 82.873 77.2881 82.873C75.6182 82.873 73.957 83.1719 72.3047 83.7695C70.6699 84.3496 69.0791 85.1494 67.5322 86.1689C65.9854 87.1885 64.5 88.3926 63.0762 89.7812C61.6523 91.1523 60.3252 92.6289 59.0947 94.2109C57.8643 95.793 56.748 97.4453 55.7461 99.168C54.7441 100.873 53.8828 102.569 53.1621 104.257C52.459 105.944 51.9141 107.588 51.5273 109.188C51.1406 110.77 50.9473 112.229 50.9473 113.564C50.9473 115.111 51.167 116.57 51.6064 117.941C52.0635 119.312 52.7402 120.508 53.6367 121.527C54.5332 122.547 55.6494 123.347 56.9854 123.927C58.3389 124.524 59.9121 124.823 61.7051 124.823C63.3047 124.823 64.9658 124.577 66.6885 124.085C68.4111 123.593 70.125 122.802 71.8301 121.712C73.5527 120.622 75.249 119.216 76.9189 117.493C78.5889 115.753 80.1885 113.644 81.7178 111.165L82.667 111.903C81.0146 114.593 79.292 116.852 77.499 118.68C75.7061 120.508 73.9131 121.976 72.1201 123.083C70.3271 124.208 68.5605 125.008 66.8203 125.482C65.0801 125.975 63.4277 126.221 61.8633 126.221C59.6133 126.221 57.627 125.816 55.9043 125.008C54.1816 124.217 52.7402 123.171 51.5801 121.87C50.4199 120.569 49.541 119.093 48.9434 117.44C48.3633 115.771 48.0732 114.074 48.0732 112.352C48.0732 110.875 48.2754 109.302 48.6797 107.632C49.1016 105.962 49.6904 104.266 50.4463 102.543C51.2021 100.82 52.1074 99.0977 53.1621 97.375C54.2344 95.6523 55.4209 94.0088 56.7217 92.4443C58.04 90.8623 59.4639 89.3945 60.9932 88.041C62.5225 86.6875 64.1221 85.5186 65.792 84.5342C67.4795 83.5322 69.2109 82.75 70.9863 82.1875C72.7793 81.6074 74.5986 81.3174 76.4443 81.3174C77.6045 81.3174 78.7119 81.4844 79.7666 81.8184C80.8389 82.1348 81.7793 82.6445 82.5879 83.3477C83.3965 84.0508 84.0381 84.9561 84.5127 86.0635C84.9873 87.1533 85.2246 88.4717 85.2246 90.0186C85.2246 91.0557 85.0664 92.1807 84.75 93.3936C84.4336 94.6064 83.9678 95.8281 83.3525 97.0586C82.7549 98.2715 82.0166 99.4492 81.1377 100.592C80.2764 101.734 79.292 102.745 78.1846 103.624C77.0947 104.485 75.8818 105.18 74.5459 105.707C73.2275 106.234 71.8213 106.498 70.3271 106.498C68.7275 106.498 67.3301 106.234 66.1348 105.707C64.957 105.162 63.9463 104.494 63.1025 103.703L63.8936 102.833ZM102.68 103.466C102.451 103.923 102.126 104.521 101.704 105.259C101.3 105.997 100.86 106.814 100.386 107.711C99.9111 108.59 99.4277 109.513 98.9355 110.479C98.4609 111.446 98.0215 112.396 97.6172 113.327C97.2305 114.241 96.9053 115.111 96.6416 115.938C96.3955 116.746 96.2725 117.432 96.2725 117.994C96.2725 118.557 96.3779 118.926 96.5889 119.102C96.8174 119.26 97.1074 119.339 97.459 119.339C97.9688 119.339 98.4873 119.189 99.0146 118.891C99.5596 118.592 100.087 118.205 100.597 117.73C101.124 117.256 101.634 116.72 102.126 116.122C102.618 115.524 103.075 114.927 103.497 114.329C103.937 113.714 104.332 113.134 104.684 112.589C105.035 112.026 105.334 111.552 105.58 111.165L106.529 111.903C106.23 112.466 105.879 113.072 105.475 113.723C105.07 114.373 104.622 115.032 104.13 115.7C103.655 116.351 103.137 116.983 102.574 117.599C102.012 118.214 101.414 118.759 100.781 119.233C100.166 119.708 99.5156 120.086 98.8301 120.367C98.1445 120.648 97.4414 120.789 96.7207 120.789C95.666 120.789 94.8926 120.473 94.4004 119.84C93.9082 119.207 93.6621 118.39 93.6621 117.388C93.6621 117.317 93.6621 117.168 93.6621 116.939C93.6797 116.693 93.7061 116.5 93.7412 116.359C92.8623 117.467 92.0186 118.381 91.21 119.102C90.4189 119.822 89.6455 120.394 88.8896 120.815C88.1514 121.237 87.4307 121.527 86.7275 121.686C86.042 121.861 85.3828 121.949 84.75 121.949C84.082 121.949 83.4492 121.835 82.8516 121.606C82.2715 121.396 81.7617 121.079 81.3223 120.657C80.8652 120.235 80.5137 119.717 80.2676 119.102C80.0039 118.486 79.8721 117.774 79.8721 116.966C79.8721 115.964 80.1006 114.821 80.5576 113.538C80.9971 112.237 81.7881 110.84 82.9307 109.346C83.8975 108.062 84.8994 106.981 85.9365 106.103C86.9912 105.224 88.0195 104.521 89.0215 103.993C90.041 103.448 91.0078 103.062 91.9219 102.833C92.8359 102.604 93.6533 102.49 94.374 102.49C95.9912 102.49 97.2129 102.763 98.0391 103.308C98.8652 103.835 99.3662 104.652 99.542 105.76C99.8936 105.32 100.263 104.881 100.649 104.441C101.036 104.002 101.432 103.554 101.836 103.097L102.68 103.466ZM94.585 113.485C94.8135 113.116 95.0947 112.65 95.4287 112.088C95.7627 111.508 96.1143 110.919 96.4834 110.321C96.8525 109.706 97.2129 109.117 97.5645 108.555C97.916 107.992 98.2236 107.518 98.4873 107.131C98.4873 106.973 98.4609 106.718 98.4082 106.366C98.373 106.015 98.2588 105.663 98.0654 105.312C97.8721 104.942 97.5645 104.626 97.1426 104.362C96.7207 104.099 96.1318 103.967 95.376 103.967C94.8311 103.967 94.2158 104.055 93.5303 104.23C92.8623 104.389 92.1416 104.67 91.3682 105.074C90.6123 105.461 89.8301 105.979 89.0215 106.63C88.2129 107.28 87.4043 108.089 86.5957 109.056C85.3828 110.515 84.4424 111.982 83.7744 113.459C83.124 114.918 82.7988 116.236 82.7988 117.414C82.7988 118.416 83.0273 119.189 83.4844 119.734C83.9414 120.279 84.5918 120.552 85.4355 120.552C86.4023 120.552 87.3076 120.341 88.1514 119.919C88.9951 119.479 89.7861 118.917 90.5244 118.231C91.2627 117.546 91.9658 116.79 92.6338 115.964C93.3018 115.12 93.9521 114.294 94.585 113.485ZM114.809 98.0078L108.823 110.031C109.878 108.678 110.985 107.421 112.146 106.261C113.306 105.083 114.492 104.125 115.705 103.387C116.602 102.859 117.393 102.499 118.078 102.306C118.764 102.095 119.414 101.989 120.029 101.989C120.627 101.989 121.119 102.086 121.506 102.279C121.893 102.473 122.2 102.728 122.429 103.044C122.657 103.36 122.815 103.712 122.903 104.099C122.991 104.468 123.035 104.837 123.035 105.206C123.035 106.032 122.895 106.85 122.613 107.658C122.332 108.467 121.98 109.267 121.559 110.058C121.154 110.849 120.706 111.631 120.214 112.404C119.722 113.16 119.265 113.907 118.843 114.646C118.438 115.366 118.096 116.078 117.814 116.781C117.533 117.484 117.393 118.161 117.393 118.812C117.393 119.128 117.428 119.392 117.498 119.603C117.586 119.796 117.691 119.954 117.814 120.077C117.955 120.183 118.104 120.253 118.263 120.288C118.421 120.323 118.579 120.341 118.737 120.341C119.071 120.341 119.458 120.191 119.897 119.893C120.354 119.576 120.838 119.172 121.348 118.68C121.857 118.17 122.376 117.599 122.903 116.966C123.448 116.315 123.967 115.656 124.459 114.988C124.969 114.303 125.443 113.635 125.883 112.984C126.322 112.316 126.709 111.71 127.043 111.165L128.019 111.903C127.825 112.29 127.535 112.8 127.148 113.433C126.779 114.065 126.34 114.751 125.83 115.489C125.32 116.21 124.758 116.939 124.143 117.678C123.545 118.398 122.912 119.058 122.244 119.655C121.576 120.253 120.891 120.736 120.188 121.105C119.502 121.492 118.825 121.686 118.157 121.686C117.7 121.686 117.261 121.615 116.839 121.475C116.417 121.334 116.048 121.123 115.731 120.842C115.415 120.543 115.16 120.165 114.967 119.708C114.773 119.251 114.677 118.706 114.677 118.073C114.677 117.317 114.826 116.447 115.125 115.463C115.441 114.479 116.039 113.354 116.918 112.088C117.639 111.051 118.263 110.189 118.79 109.504C119.317 108.801 119.748 108.194 120.082 107.685C120.434 107.157 120.688 106.683 120.847 106.261C121.005 105.821 121.084 105.338 121.084 104.811C121.084 104.354 120.952 104.002 120.688 103.756C120.425 103.51 120.126 103.387 119.792 103.387C118.896 103.387 117.973 103.642 117.023 104.151C116.074 104.661 115.134 105.338 114.202 106.182C113.271 107.008 112.356 107.957 111.46 109.029C110.563 110.102 109.711 111.2 108.902 112.325C108.111 113.433 107.373 114.522 106.688 115.595C106.02 116.667 105.439 117.634 104.947 118.495C104.455 119.339 104.077 120.024 103.813 120.552C103.532 121.062 103.383 121.325 103.365 121.343C102.627 122.854 101.906 124.313 101.203 125.72C100.5 127.144 99.8408 128.488 99.2256 129.754C98.5928 131.02 98.0127 132.171 97.4854 133.208C96.958 134.263 96.501 135.177 96.1143 135.95C95.7275 136.724 95.4287 137.33 95.2178 137.77C94.9893 138.209 94.8662 138.438 94.8486 138.455L91.9746 136.82C93.416 134.096 94.7168 131.635 95.877 129.438C97.0371 127.24 98.1445 125.166 99.1992 123.215C100.254 121.281 101.291 119.4 102.311 117.572C103.33 115.744 104.411 113.837 105.554 111.851C106.696 109.847 107.936 107.702 109.271 105.417C110.625 103.114 112.163 100.521 113.886 97.6387L114.809 98.0078ZM138.908 97.6123C138.908 97.9639 138.82 98.333 138.645 98.7197C138.469 99.0889 138.24 99.4229 137.959 99.7217C137.695 100.021 137.396 100.267 137.062 100.46C136.729 100.653 136.395 100.75 136.061 100.75C135.762 100.75 135.533 100.645 135.375 100.434C135.217 100.205 135.138 99.9326 135.138 99.6162C135.138 99.335 135.19 99.001 135.296 98.6143C135.401 98.2275 135.56 97.8672 135.771 97.5332C135.981 97.1816 136.236 96.8828 136.535 96.6367C136.834 96.3906 137.177 96.2676 137.563 96.2676C137.933 96.2676 138.249 96.4082 138.513 96.6895C138.776 96.9707 138.908 97.2783 138.908 97.6123ZM133.978 103.466C133.749 103.923 133.424 104.529 133.002 105.285C132.598 106.023 132.158 106.841 131.684 107.737C131.209 108.616 130.726 109.548 130.233 110.532C129.741 111.499 129.293 112.448 128.889 113.38C128.502 114.294 128.186 115.155 127.939 115.964C127.693 116.772 127.57 117.458 127.57 118.021C127.57 118.53 127.676 118.882 127.887 119.075C128.098 119.251 128.396 119.339 128.783 119.339C129.504 119.339 130.207 119.102 130.893 118.627C131.578 118.152 132.255 117.537 132.923 116.781C133.608 116.008 134.276 115.129 134.927 114.145C135.577 113.16 136.228 112.167 136.878 111.165L137.827 111.903C137.317 112.817 136.737 113.793 136.087 114.83C135.454 115.867 134.742 116.834 133.951 117.73C133.16 118.609 132.29 119.339 131.341 119.919C130.392 120.499 129.354 120.789 128.229 120.789C127.175 120.789 126.366 120.473 125.804 119.84C125.241 119.207 124.96 118.39 124.96 117.388C124.96 116.21 125.232 114.979 125.777 113.696C126.322 112.413 126.999 111.147 127.808 109.899C128.634 108.634 129.521 107.421 130.471 106.261C131.438 105.101 132.325 104.046 133.134 103.097L133.978 103.466ZM142.23 99.2471C142.406 98.9482 142.714 98.4297 143.153 97.6914C143.61 96.9531 144.138 96.1357 144.735 95.2393C145.351 94.3428 146.01 93.4463 146.713 92.5498C147.434 91.6357 148.137 90.8623 148.822 90.2295L150.009 90.9414C149.253 92.1895 148.479 93.5166 147.688 94.9229C146.897 96.3115 146.115 97.7529 145.342 99.2471H153.938L153.41 100.618H144.63C143.839 102.2 143.092 103.773 142.389 105.338C141.703 106.902 141.097 108.396 140.569 109.82C140.042 111.244 139.629 112.58 139.33 113.828C139.031 115.059 138.882 116.131 138.882 117.045C138.882 118.188 139.146 119.014 139.673 119.523C140.2 120.016 140.851 120.262 141.624 120.262C142.31 120.262 143.013 120.06 143.733 119.655C144.454 119.233 145.157 118.706 145.843 118.073C146.546 117.44 147.205 116.746 147.82 115.99C148.453 115.234 149.007 114.522 149.481 113.854C149.974 113.187 150.378 112.606 150.694 112.114C151.011 111.604 151.204 111.288 151.274 111.165L152.25 111.903C151.635 112.923 150.94 114.004 150.167 115.146C149.394 116.289 148.532 117.353 147.583 118.337C146.651 119.304 145.632 120.112 144.524 120.763C143.417 121.396 142.222 121.712 140.938 121.712C140.147 121.712 139.453 121.571 138.855 121.29C138.275 121.009 137.783 120.622 137.379 120.13C136.975 119.62 136.676 119.022 136.482 118.337C136.271 117.651 136.166 116.904 136.166 116.096C136.166 115.568 136.254 114.821 136.43 113.854C136.588 112.888 136.869 111.745 137.273 110.427C137.678 109.091 138.214 107.597 138.882 105.944C139.567 104.292 140.429 102.517 141.466 100.618H137.089L137.616 99.2471H142.23ZM172.236 103.466C172.008 103.923 171.683 104.521 171.261 105.259C170.856 105.997 170.417 106.814 169.942 107.711C169.468 108.59 168.984 109.513 168.492 110.479C168.018 111.446 167.578 112.396 167.174 113.327C166.787 114.241 166.462 115.111 166.198 115.938C165.952 116.746 165.829 117.432 165.829 117.994C165.829 118.557 165.935 118.926 166.146 119.102C166.374 119.26 166.664 119.339 167.016 119.339C167.525 119.339 168.044 119.189 168.571 118.891C169.116 118.592 169.644 118.205 170.153 117.73C170.681 117.256 171.19 116.72 171.683 116.122C172.175 115.524 172.632 114.927 173.054 114.329C173.493 113.714 173.889 113.134 174.24 112.589C174.592 112.026 174.891 111.552 175.137 111.165L176.086 111.903C175.787 112.466 175.436 113.072 175.031 113.723C174.627 114.373 174.179 115.032 173.687 115.7C173.212 116.351 172.693 116.983 172.131 117.599C171.568 118.214 170.971 118.759 170.338 119.233C169.723 119.708 169.072 120.086 168.387 120.367C167.701 120.648 166.998 120.789 166.277 120.789C165.223 120.789 164.449 120.473 163.957 119.84C163.465 119.207 163.219 118.39 163.219 117.388C163.219 117.317 163.219 117.168 163.219 116.939C163.236 116.693 163.263 116.5 163.298 116.359C162.419 117.467 161.575 118.381 160.767 119.102C159.976 119.822 159.202 120.394 158.446 120.815C157.708 121.237 156.987 121.527 156.284 121.686C155.599 121.861 154.939 121.949 154.307 121.949C153.639 121.949 153.006 121.835 152.408 121.606C151.828 121.396 151.318 121.079 150.879 120.657C150.422 120.235 150.07 119.717 149.824 119.102C149.561 118.486 149.429 117.774 149.429 116.966C149.429 115.964 149.657 114.821 150.114 113.538C150.554 112.237 151.345 110.84 152.487 109.346C153.454 108.062 154.456 106.981 155.493 106.103C156.548 105.224 157.576 104.521 158.578 103.993C159.598 103.448 160.564 103.062 161.479 102.833C162.393 102.604 163.21 102.49 163.931 102.49C165.548 102.49 166.77 102.763 167.596 103.308C168.422 103.835 168.923 104.652 169.099 105.76C169.45 105.32 169.819 104.881 170.206 104.441C170.593 104.002 170.988 103.554 171.393 103.097L172.236 103.466ZM164.142 113.485C164.37 113.116 164.651 112.65 164.985 112.088C165.319 111.508 165.671 110.919 166.04 110.321C166.409 109.706 166.77 109.117 167.121 108.555C167.473 107.992 167.78 107.518 168.044 107.131C168.044 106.973 168.018 106.718 167.965 106.366C167.93 106.015 167.815 105.663 167.622 105.312C167.429 104.942 167.121 104.626 166.699 104.362C166.277 104.099 165.688 103.967 164.933 103.967C164.388 103.967 163.772 104.055 163.087 104.23C162.419 104.389 161.698 104.67 160.925 105.074C160.169 105.461 159.387 105.979 158.578 106.63C157.77 107.28 156.961 108.089 156.152 109.056C154.939 110.515 153.999 111.982 153.331 113.459C152.681 114.918 152.355 116.236 152.355 117.414C152.355 118.416 152.584 119.189 153.041 119.734C153.498 120.279 154.148 120.552 154.992 120.552C155.959 120.552 156.864 120.341 157.708 119.919C158.552 119.479 159.343 118.917 160.081 118.231C160.819 117.546 161.522 116.79 162.19 115.964C162.858 115.12 163.509 114.294 164.142 113.485ZM194.253 82.6357C194.868 82.6357 195.378 82.7852 195.782 83.084C196.204 83.3828 196.415 83.9277 196.415 84.7188C196.415 85.2637 196.301 85.9141 196.072 86.6699C195.861 87.4258 195.562 88.252 195.176 89.1484C194.807 90.0273 194.367 90.959 193.857 91.9434C193.348 92.9102 192.794 93.877 192.196 94.8438C191.616 95.8105 191.001 96.751 190.351 97.665C189.718 98.5791 189.085 99.4229 188.452 100.196C187.187 101.761 186.088 103.079 185.156 104.151C184.242 105.224 183.451 106.138 182.783 106.894C182.115 107.632 181.553 108.238 181.096 108.713C180.639 109.17 180.234 109.565 179.883 109.899C179.531 110.233 179.206 110.541 178.907 110.822C178.608 111.086 178.301 111.385 177.984 111.719C177.844 112.387 177.773 113.028 177.773 113.644C177.791 114.241 177.8 114.795 177.8 115.305C177.8 116.834 178.046 117.968 178.538 118.706C179.03 119.444 179.725 119.813 180.621 119.813C181.219 119.813 181.816 119.664 182.414 119.365C183.029 119.049 183.636 118.645 184.233 118.152C184.831 117.66 185.411 117.106 185.974 116.491C186.536 115.858 187.063 115.226 187.556 114.593C188.065 113.942 188.522 113.318 188.927 112.721C189.331 112.123 189.683 111.604 189.981 111.165L190.957 111.903C190.904 111.974 190.729 112.255 190.43 112.747C190.148 113.222 189.771 113.802 189.296 114.487C188.821 115.173 188.259 115.911 187.608 116.702C186.958 117.476 186.255 118.196 185.499 118.864C184.743 119.532 183.943 120.086 183.1 120.525C182.273 120.965 181.43 121.185 180.568 121.185C179.848 121.185 179.153 121.053 178.485 120.789C177.835 120.508 177.255 120.077 176.745 119.497C176.253 118.899 175.849 118.144 175.532 117.229C175.233 116.315 175.084 115.217 175.084 113.934C175.084 112.334 175.269 110.664 175.638 108.924C176.024 107.166 176.543 105.408 177.193 103.65C177.844 101.875 178.608 100.126 179.487 98.4033C180.366 96.6807 181.298 95.0459 182.282 93.499C183.284 91.9346 184.321 90.4932 185.394 89.1748C186.483 87.8389 187.547 86.6875 188.584 85.7207C189.639 84.7539 190.649 83.998 191.616 83.4531C192.583 82.9082 193.462 82.6357 194.253 82.6357ZM178.459 109.372C179.953 107.825 181.395 106.261 182.783 104.679C184.189 103.079 185.499 101.506 186.712 99.959C187.942 98.3945 189.067 96.8828 190.087 95.4238C191.106 93.9473 191.977 92.5586 192.697 91.2578C193.418 89.957 193.98 88.7705 194.385 87.6982C194.789 86.626 194.991 85.7031 194.991 84.9297C194.991 84.7891 194.921 84.6045 194.78 84.376C194.64 84.1299 194.473 84.0068 194.279 84.0068C193.734 84.0068 193.014 84.3672 192.117 85.0879C191.221 85.8086 190.245 86.793 189.19 88.041C188.153 89.2715 187.072 90.7129 185.947 92.3652C184.84 94.0176 183.794 95.7842 182.81 97.665C181.825 99.5459 180.946 101.488 180.173 103.492C179.399 105.496 178.828 107.456 178.459 109.372Z" fill="white"/>
<path d="M238.596 119.873L239.047 119.969L237.461 125H223.105V124.494H223.803C224.587 124.494 225.147 124.239 225.484 123.729C225.676 123.437 225.771 122.762 225.771 121.705V109.742C225.771 108.585 225.644 107.86 225.389 107.568C225.033 107.167 224.505 106.967 223.803 106.967H223.105V106.461H231.5V106.967C230.516 106.958 229.823 107.049 229.422 107.24C229.03 107.432 228.761 107.673 228.615 107.965C228.469 108.257 228.396 108.954 228.396 110.057V121.705C228.396 122.462 228.469 122.981 228.615 123.264C228.725 123.455 228.893 123.596 229.121 123.688C229.349 123.779 230.06 123.824 231.254 123.824H232.607C234.029 123.824 235.027 123.719 235.602 123.51C236.176 123.3 236.7 122.931 237.174 122.402C237.648 121.865 238.122 121.021 238.596 119.873ZM255.713 119.873L256.164 119.969L254.578 125H240.223V124.494H240.92C241.704 124.494 242.264 124.239 242.602 123.729C242.793 123.437 242.889 122.762 242.889 121.705V109.742C242.889 108.585 242.761 107.86 242.506 107.568C242.15 107.167 241.622 106.967 240.92 106.967H240.223V106.461H248.617V106.967C247.633 106.958 246.94 107.049 246.539 107.24C246.147 107.432 245.878 107.673 245.732 107.965C245.587 108.257 245.514 108.954 245.514 110.057V121.705C245.514 122.462 245.587 122.981 245.732 123.264C245.842 123.455 246.01 123.596 246.238 123.688C246.466 123.779 247.177 123.824 248.371 123.824H249.725C251.146 123.824 252.145 123.719 252.719 123.51C253.293 123.3 253.817 122.931 254.291 122.402C254.765 121.865 255.239 121.021 255.713 119.873ZM273.637 106.037L274.061 112.34H273.637C273.072 110.453 272.265 109.095 271.217 108.266C270.169 107.436 268.911 107.021 267.443 107.021C266.213 107.021 265.101 107.336 264.107 107.965C263.114 108.585 262.33 109.578 261.756 110.945C261.191 112.312 260.908 114.012 260.908 116.045C260.908 117.722 261.177 119.176 261.715 120.406C262.253 121.637 263.059 122.58 264.135 123.236C265.219 123.893 266.454 124.221 267.84 124.221C269.043 124.221 270.105 123.965 271.025 123.455C271.946 122.936 272.958 121.91 274.061 120.379L274.484 120.652C273.555 122.302 272.47 123.51 271.23 124.275C269.991 125.041 268.519 125.424 266.814 125.424C263.743 125.424 261.364 124.285 259.678 122.006C258.42 120.311 257.791 118.314 257.791 116.018C257.791 114.167 258.206 112.467 259.035 110.918C259.865 109.368 261.004 108.17 262.453 107.322C263.911 106.465 265.502 106.037 267.225 106.037C268.564 106.037 269.886 106.365 271.189 107.021C271.572 107.222 271.846 107.322 272.01 107.322C272.256 107.322 272.47 107.236 272.652 107.062C272.889 106.816 273.058 106.475 273.158 106.037H273.637ZM278.955 122.348C279.383 122.348 279.743 122.498 280.035 122.799C280.327 123.09 280.473 123.446 280.473 123.865C280.473 124.285 280.322 124.645 280.021 124.945C279.73 125.237 279.374 125.383 278.955 125.383C278.536 125.383 278.176 125.237 277.875 124.945C277.583 124.645 277.438 124.285 277.438 123.865C277.438 123.437 277.583 123.077 277.875 122.785C278.176 122.493 278.536 122.348 278.955 122.348Z" fill="white"/>
</svg>
