<svg width="307" height="166" viewBox="0 0 307 166" fill="none" xmlns="http://www.w3.org/2000/svg">
<rect width="307" height="166" fill="#941F1F"/>
<path d="M25.496 62V60.56L32.12 59.984H32.696V62H25.496ZM30.44 62C30.536 56.672 30.536 51.2 30.536 45.68V43.184C30.536 37.808 30.536 32.432 30.44 27.056H34.856C34.712 32.384 34.712 37.712 34.712 43.424V44.336C34.712 51.152 34.712 56.624 34.856 62H30.44ZM32.696 62V60.416H39.08C45.176 60.416 48.728 57.632 48.728 52.544C48.728 47.36 45.464 44.576 38.168 44.576H32.696V43.088H37.688C43.928 43.088 47.048 40.256 47.048 35.408C47.048 31.184 44.648 28.688 38.456 28.688H32.696V27.056H39.656C47.576 27.056 51.176 30.464 51.176 35.36C51.176 39.488 48.104 43.184 40.328 43.904L40.616 43.472C49.4 43.856 53 47.552 53 52.544C53 57.488 49.304 62 39.416 62H32.696ZM25.496 28.544V27.056H32.696V29.072H32.12L25.496 28.544ZM64.2283 62.72C60.4363 62.72 57.6043 60.512 57.6043 56.48C57.6043 52.784 59.8603 50.336 66.1963 48.464C68.8843 47.696 71.9563 46.88 74.5483 46.304V47.456C72.0043 48.128 69.2203 48.896 67.0603 49.712C63.0283 51.2 61.4443 53.264 61.4443 55.856C61.4443 58.88 63.2683 60.368 65.9563 60.368C68.0683 60.368 69.9403 59.264 73.6363 55.568L74.0683 57.824H72.9163C69.9403 61.088 67.8282 62.72 64.2283 62.72ZM77.0443 62.672C74.2123 62.672 72.8203 60.656 72.6283 57.248V44.768C72.6283 39.44 70.9483 38.048 67.1562 38.048C65.2843 38.048 63.5083 38.528 61.3483 39.728L63.4603 38.432L62.6443 42.224C62.4043 43.952 61.5403 44.528 60.3883 44.528C59.2843 44.528 58.5163 43.952 58.2763 42.848C59.1883 38.912 62.7883 36.56 68.2123 36.56C73.7803 36.56 76.4683 39.008 76.4683 45.008V56.864C76.4683 59.84 77.1403 60.704 78.4843 60.704C79.3003 60.704 79.8282 60.416 80.6443 59.504L81.4123 60.272C80.3563 61.904 78.9163 62.672 77.0443 62.672ZM92.483 62.72C89.363 62.72 87.059 62.048 84.467 60.8V55.136H86.531L87.683 61.136L85.907 61.04V59.312C87.731 60.512 89.555 61.184 92.339 61.184C96.611 61.184 98.771 59.312 98.771 56.576C98.771 54.272 97.571 52.88 93.635 51.632L91.139 50.72C87.251 49.376 84.803 47.264 84.803 43.664C84.803 39.632 88.019 36.56 93.827 36.56C96.659 36.56 98.771 37.232 101.171 38.672L100.979 43.808H99.059L97.955 38.24L99.443 38.48V40.064C97.475 38.672 95.795 38.096 93.827 38.096C90.131 38.096 88.259 39.92 88.259 42.416C88.259 44.768 89.699 46.064 93.203 47.216L95.603 48.08C100.451 49.76 102.323 51.968 102.323 55.328C102.323 59.504 98.963 62.72 92.483 62.72ZM119.107 62.72C111.955 62.72 106.867 58.352 106.867 49.712C106.867 41.6 112.339 36.56 118.674 36.56C124.915 36.56 128.611 40.88 128.611 46.496C128.611 47.696 128.515 48.656 128.323 49.424H108.691V47.888H122.659C124.339 47.888 124.819 47.072 124.819 45.104C124.819 41.024 122.515 38.096 118.579 38.096C114.355 38.096 110.995 42.176 110.995 49.136C110.995 56.912 114.835 60.32 120.163 60.32C123.523 60.32 125.971 59.12 127.939 56.816L128.707 57.488C126.595 60.752 123.427 62.72 119.107 62.72ZM143.629 62.72C137.485 62.72 133.117 57.584 133.117 49.952C133.117 41.648 138.013 36.56 144.301 36.56C147.085 36.56 149.725 37.856 152.077 41.024H152.557L151.933 42.272C149.677 39.776 147.661 38.768 145.309 38.768C140.941 38.768 137.341 41.984 137.341 49.856C137.341 57.152 140.605 60.464 145.021 60.464C147.613 60.464 149.629 59.408 151.885 56.72L152.461 58.064H152.029C149.821 61.232 146.941 62.72 143.629 62.72ZM151.549 62.48L151.309 57.776V41.36L151.405 40.88V26.336L147.085 26.096V24.8L154.669 23.36L155.389 23.792L155.245 31.088V60.368L159.709 60.704V62L151.549 62.48Z" fill="white"/>
<path d="M25.496 109V107.56L32.12 106.984H32.696V109H25.496ZM30.44 109C30.536 103.72 30.536 98.296 30.536 92.872V90.232C30.536 84.808 30.536 79.432 30.44 74.056H34.904C34.808 79.384 34.808 84.808 34.808 90.808V91.864C34.808 98.296 34.808 103.672 34.904 109H30.44ZM32.696 109V107.368H50.648L48.536 108.616L50.12 100.264H52.184L51.848 109H32.696ZM32.696 92.104V90.472H44.216V92.104H32.696ZM43.88 97L43.256 91.672V90.664L43.88 85.48H45.56V97H43.88ZM25.496 75.544V74.056H32.696V76.072H32.12L25.496 75.544ZM49.256 82.696L47.672 74.44L49.832 75.784H32.696V74.056H50.984L51.32 82.696H49.256ZM56.2805 109V107.704L61.5125 107.176H63.0485L68.0405 107.704V109H56.2805ZM60.2165 109C60.3605 106.696 60.4085 101.32 60.4085 98.056V95.128C60.4085 91.864 60.3605 89.464 60.2165 87.064L55.9925 86.824V85.624L63.3845 83.656L64.0085 84.088L64.3445 89.656V98.056C64.3445 101.32 64.3925 106.696 64.4885 109H60.2165ZM72.6005 109V107.704L77.7845 107.176H79.3685L84.3605 107.704V109H72.6005ZM76.5365 109C76.6325 106.696 76.6805 101.416 76.6805 98.056V92.488C76.6805 87.784 75.0485 86.152 72.2645 86.152C70.1045 86.152 66.9845 87.304 63.5285 91.144L63.0965 89.56H63.5765C67.0805 85.24 70.5365 83.56 73.8965 83.56C78.0725 83.56 80.5685 86.104 80.5685 92.584V98.056C80.5685 101.416 80.6645 106.696 80.7605 109H76.5365ZM93.392 86.056V84.28H102.272V86.056H93.392ZM97.28 109.72C93.248 109.72 91.376 107.656 91.376 103.384C91.376 101.848 91.424 100.84 91.424 99.064V86.056H86.672V84.568L92.432 84.136L91.52 84.808L92.912 76.744H95.6L95.408 85V103.384C95.408 106.36 96.56 107.608 98.672 107.608C100.112 107.608 101.024 107.224 102.32 106.408L102.992 107.272C101.696 108.856 99.824 109.72 97.28 109.72ZM118.122 109.72C110.97 109.72 105.882 105.352 105.882 96.712C105.882 88.6 111.354 83.56 117.69 83.56C123.93 83.56 127.626 87.88 127.626 93.496C127.626 94.696 127.53 95.656 127.338 96.424H107.706V94.888H121.674C123.354 94.888 123.834 94.072 123.834 92.104C123.834 88.024 121.53 85.096 117.594 85.096C113.37 85.096 110.01 89.176 110.01 96.136C110.01 103.912 113.85 107.32 119.178 107.32C122.538 107.32 124.986 106.12 126.954 103.816L127.722 104.488C125.61 107.752 122.442 109.72 118.122 109.72ZM131.796 109V107.704L137.076 107.128H139.044L144.468 107.704V109H131.796ZM135.732 109C135.876 106.696 135.924 101.32 135.924 98.056V95.128C135.924 91.864 135.876 89.464 135.732 87.064L131.508 86.824V85.624L138.9 83.656L139.524 84.088L139.86 90.856V98.056C139.86 101.32 139.908 106.696 140.004 109H135.732ZM139.812 93.736L138.756 91.24H139.62C141.108 86.536 144.468 83.56 147.828 83.56C149.7 83.56 151.236 84.328 151.668 85.72C151.668 87.4 150.9 88.408 149.172 88.408C147.972 88.408 147.108 87.784 146.004 86.632L144.9 85.576L147.108 85.624C143.748 86.584 141.492 89.032 139.812 93.736ZM153.92 121.48V120.184L159.248 119.704H161.072L166.784 120.184V121.48H153.92ZM158 121.48C158.096 118.264 158.144 113.656 158.144 110.296V95.272C158.144 92.008 158.096 89.464 158 87.064L153.728 86.824V85.624L161.072 83.656L161.696 84.088L161.984 88.12L162.08 88.36V105.256L162.032 105.736V110.296C162.032 113.608 162.08 118.264 162.176 121.48H158ZM169.568 109.72C166.688 109.72 163.712 108.712 161.312 105.304H160.688L161.36 103.96C163.712 106.648 165.824 107.464 168.464 107.464C172.64 107.464 176 104.44 176 96.52C176 89.224 173.024 85.768 168.656 85.768C166.304 85.768 164 86.632 161.168 89.896L160.64 88.6H161.168C163.664 85 166.976 83.56 170.24 83.56C176.048 83.56 180.272 88.504 180.272 96.424C180.272 104.632 175.76 109.72 169.568 109.72ZM184.577 109V107.704L189.857 107.128H191.825L197.249 107.704V109H184.577ZM188.513 109C188.657 106.696 188.705 101.32 188.705 98.056V95.128C188.705 91.864 188.657 89.464 188.513 87.064L184.289 86.824V85.624L191.681 83.656L192.305 84.088L192.641 90.856V98.056C192.641 101.32 192.689 106.696 192.785 109H188.513ZM192.593 93.736L191.537 91.24H192.401C193.889 86.536 197.249 83.56 200.609 83.56C202.481 83.56 204.017 84.328 204.449 85.72C204.449 87.4 203.681 88.408 201.953 88.408C200.753 88.408 199.889 87.784 198.785 86.632L197.681 85.576L199.889 85.624C196.529 86.584 194.273 89.032 192.593 93.736ZM206.845 109V107.704L212.125 107.176H213.613L218.701 107.704V109H206.845ZM210.829 109C210.925 106.696 211.021 101.32 211.021 98.056V95.176C211.021 91.912 210.925 89.416 210.829 87.016L206.557 86.824V85.576L214.429 83.656L215.005 84.088L214.909 90.76V98.056C214.909 101.32 214.957 106.696 215.053 109H210.829ZM212.557 77.56C211.021 77.56 209.821 76.504 209.821 74.872C209.821 73.336 211.021 72.184 212.557 72.184C214.093 72.184 215.389 73.336 215.389 74.872C215.389 76.504 214.093 77.56 212.557 77.56ZM231.327 109.72C228.207 109.72 225.903 109.048 223.311 107.8V102.136H225.375L226.527 108.136L224.751 108.04V106.312C226.575 107.512 228.399 108.184 231.183 108.184C235.455 108.184 237.615 106.312 237.615 103.576C237.615 101.272 236.415 99.88 232.479 98.632L229.983 97.72C226.095 96.376 223.647 94.264 223.647 90.664C223.647 86.632 226.863 83.56 232.671 83.56C235.503 83.56 237.615 84.232 240.015 85.672L239.823 90.808H237.903L236.799 85.24L238.287 85.48V87.064C236.319 85.672 234.639 85.096 232.671 85.096C228.975 85.096 227.103 86.92 227.103 89.416C227.103 91.768 228.543 93.064 232.047 94.216L234.447 95.08C239.295 96.76 241.167 98.968 241.167 102.328C241.167 106.504 237.807 109.72 231.327 109.72ZM257.95 109.72C250.798 109.72 245.71 105.352 245.71 96.712C245.71 88.6 251.182 83.56 257.518 83.56C263.758 83.56 267.454 87.88 267.454 93.496C267.454 94.696 267.358 95.656 267.166 96.424H247.534V94.888H261.502C263.182 94.888 263.662 94.072 263.662 92.104C263.662 88.024 261.358 85.096 257.422 85.096C253.198 85.096 249.838 89.176 249.838 96.136C249.838 103.912 253.678 107.32 259.006 107.32C262.366 107.32 264.814 106.12 266.782 103.816L267.55 104.488C265.438 107.752 262.27 109.72 257.95 109.72Z" fill="white"/>
<path d="M42.0508 133.873L42.502 133.969L40.916 139H26.5605V138.494H27.2578C28.0417 138.494 28.6022 138.239 28.9395 137.729C29.1309 137.437 29.2266 136.762 29.2266 135.705V123.742C29.2266 122.585 29.099 121.86 28.8438 121.568C28.4883 121.167 27.9596 120.967 27.2578 120.967H26.5605V120.461H34.9551V120.967C33.9707 120.958 33.278 121.049 32.877 121.24C32.485 121.432 32.2161 121.673 32.0703 121.965C31.9245 122.257 31.8516 122.954 31.8516 124.057V135.705C31.8516 136.462 31.9245 136.981 32.0703 137.264C32.1797 137.455 32.3483 137.596 32.5762 137.688C32.804 137.779 33.515 137.824 34.709 137.824H36.0625C37.4844 137.824 38.4824 137.719 39.0566 137.51C39.6309 137.3 40.1549 136.931 40.6289 136.402C41.1029 135.865 41.5768 135.021 42.0508 133.873ZM59.168 133.873L59.6191 133.969L58.0332 139H43.6777V138.494H44.375C45.1589 138.494 45.7194 138.239 46.0566 137.729C46.248 137.437 46.3438 136.762 46.3438 135.705V123.742C46.3438 122.585 46.2161 121.86 45.9609 121.568C45.6055 121.167 45.0768 120.967 44.375 120.967H43.6777V120.461H52.0723V120.967C51.0879 120.958 50.3952 121.049 49.9941 121.24C49.6022 121.432 49.3333 121.673 49.1875 121.965C49.0417 122.257 48.9688 122.954 48.9688 124.057V135.705C48.9688 136.462 49.0417 136.981 49.1875 137.264C49.2969 137.455 49.4655 137.596 49.6934 137.688C49.9212 137.779 50.6322 137.824 51.8262 137.824H53.1797C54.6016 137.824 55.5996 137.719 56.1738 137.51C56.748 137.3 57.2721 136.931 57.7461 136.402C58.2201 135.865 58.694 135.021 59.168 133.873ZM77.0918 120.037L77.5156 126.34H77.0918C76.5267 124.453 75.7201 123.095 74.6719 122.266C73.6237 121.436 72.3659 121.021 70.8984 121.021C69.668 121.021 68.556 121.336 67.5625 121.965C66.569 122.585 65.7852 123.578 65.2109 124.945C64.6458 126.312 64.3633 128.012 64.3633 130.045C64.3633 131.722 64.6322 133.176 65.1699 134.406C65.7077 135.637 66.5143 136.58 67.5898 137.236C68.6745 137.893 69.9095 138.221 71.2949 138.221C72.498 138.221 73.5599 137.965 74.4805 137.455C75.401 136.936 76.4128 135.91 77.5156 134.379L77.9395 134.652C77.0098 136.302 75.9251 137.51 74.6855 138.275C73.446 139.041 71.974 139.424 70.2695 139.424C67.1979 139.424 64.819 138.285 63.1328 136.006C61.875 134.311 61.2461 132.314 61.2461 130.018C61.2461 128.167 61.6608 126.467 62.4902 124.918C63.3197 123.368 64.459 122.17 65.9082 121.322C67.3665 120.465 68.957 120.037 70.6797 120.037C72.0195 120.037 73.3411 120.365 74.6445 121.021C75.0273 121.222 75.3008 121.322 75.4648 121.322C75.7109 121.322 75.9251 121.236 76.1074 121.062C76.3444 120.816 76.513 120.475 76.6133 120.037H77.0918ZM82.4102 136.348C82.8385 136.348 83.1986 136.498 83.4902 136.799C83.7819 137.09 83.9277 137.446 83.9277 137.865C83.9277 138.285 83.7773 138.645 83.4766 138.945C83.1849 139.237 82.8294 139.383 82.4102 139.383C81.9909 139.383 81.6309 139.237 81.3301 138.945C81.0384 138.645 80.8926 138.285 80.8926 137.865C80.8926 137.437 81.0384 137.077 81.3301 136.785C81.6309 136.493 81.9909 136.348 82.4102 136.348Z" fill="white"/>
</svg>
